<?xml version="1.0" standalone="no"?>
<!DOCTYPE svg PUBLIC "-//W3C//DTD SVG 1.1//EN" "http://www.w3.org/Graphics/SVG/1.1/DTD/svg11.dtd" >
<svg xmlns="http://www.w3.org/2000/svg">
<metadata></metadata>
<defs>
<font id="superspace_regularitalic" horiz-adv-x="0" >
<font-face units-per-em="2048" ascent="1638" descent="-410" />
<missing-glyph horiz-adv-x="690" />
<glyph unicode="&#x2018;&#x2018;" horiz-adv-x="623" d="M299 914l74 400h156l-92 -400h-138zM564 914l74 400h156l-92 -400h-138z" />
<glyph unicode="&#x2019;&#x2019;" horiz-adv-x="626" d="M307 914l74 400h156l-92 -400h-138zM572 914l74 400h156l-92 -400h-138z" />
<glyph />
<glyph unicode="&#xd;" horiz-adv-x="579" />
<glyph unicode=" "  horiz-adv-x="690" />
<glyph unicode="&#x09;" horiz-adv-x="690" />
<glyph unicode="&#xa0;" horiz-adv-x="690" />
<glyph unicode="!" horiz-adv-x="423" d="M112 74q-5 21 0 45t19 45t33.5 37t43 25.5t46.5 9.5q25 0 44.5 -9.5t31.5 -25.5t16.5 -37t-0.5 -45t-18.5 -45t-32.5 -37t-42.5 -25.5t-48.5 -9.5q-23 0 -42.5 9.5t-32 25.5t-17.5 37zM206 328l178 927h172l-212 -927h-138z" />
<glyph unicode="&#x22;" horiz-adv-x="614" d="M277 834l74 400h156l-92 -400h-138zM542 834l74 400h156l-92 -400h-138z" />
<glyph unicode="#" horiz-adv-x="1364" d="M79 295l31 147h284q19 36 35.5 68t32.5 64t32.5 64.5t35.5 70.5h-246l31 146h289q35 72 75 149.5t75 147.5h153l-149 -297h357q36 72 75.5 149.5t73.5 147.5h154l-148 -296h215l-31 -147h-260q-18 -36 -33.5 -68t-31.5 -63.5t-32 -64.5t-35 -70h221l-32 -148h-264 q-35 -71 -74.5 -149t-74.5 -147h-156l150 296h-357q-35 -71 -74 -149t-74 -147h-156l150 296h-242zM549 442h357q18 36 34.5 68l33 64t33 64.5t35.5 70.5h-358l-34 -68l-32 -64t-33 -65t-36 -70z" />
<glyph unicode="$" horiz-adv-x="1084" d="M100 106l89 135q43 -22 91 -40.5t97 -31.5t97.5 -20.5t93.5 -7.5q58 0 108.5 10.5t91 33t69.5 57.5t44 85q10 54 -13.5 86t-63.5 50.5t-89.5 28t-91.5 18.5q-20 5 -58.5 11t-83 18t-89.5 33t-78 56.5t-47.5 88.5t1.5 129q24 91 72.5 152t111.5 98t135 54t142 21l25 117 h148l-25 -117q82 -8 157.5 -30t141.5 -51l-89 -136q-32 15 -70.5 28.5t-81 23.5t-87.5 15.5t-89 5.5q-63 0 -119 -12t-101 -35.5t-77 -58t-47 -79.5q-7 -38 4 -65.5t33.5 -46.5t53 -31.5t63 -20.5t63.5 -14t55 -11h-1q25 -7 65 -13.5t83 -19t84.5 -33.5t71 -55.5t41.5 -86 t-3 -125.5l-1 -4q-21 -77 -60.5 -133t-92 -94t-115.5 -59.5t-130 -28.5l-26 -121h-148l25 117q-96 8 -194 36t-186 73z" />
<glyph unicode="%" horiz-adv-x="1356" d="M156 0l1092 1150h184l-1093 -1150h-183zM213 706.5q-9 42.5 1 90.5l24 111q10 48 37 90.5t65 74t84 49.5t94 18h122q47 0 85.5 -18t63 -49.5t34 -74t-0.5 -90.5l-24 -111q-10 -48 -37.5 -90.5t-65.5 -74t-84 -49.5t-93 -18h-122q-48 0 -86.5 18t-63 49.5t-33.5 74z M356 797q-8 -37 12.5 -63.5t57.5 -26.5h122q18 0 35.5 7t32.5 19.5t25.5 29t14.5 34.5l24 111q8 38 -13.5 63.5t-57.5 25.5h-122q-18 0 -36 -7t-32.5 -19t-24.5 -28t-14 -35zM764 150.5q-9 42.5 2 90.5l23 111q10 48 37.5 90.5t65.5 74t84.5 49.5t94.5 18h120q48 0 86.5 -18 t63.5 -49.5t33.5 -74t-1.5 -90.5l-23 -111q-11 -48 -38 -90.5t-65 -74t-84.5 -49.5t-94.5 -18h-120q-48 0 -86.5 18t-63.5 49.5t-34 74zM908 241q-8 -37 13 -63t58 -26h120q19 0 36.5 7t32.5 19t25.5 28.5t14.5 34.5l23 111q8 37 -12.5 63.5t-58.5 26.5h-120q-18 0 -36 -7 t-33 -19.5t-25.5 -29t-14.5 -34.5z" />
<glyph unicode="&#x26;" horiz-adv-x="1267" d="M213 354l8 41q17 76 52.5 132.5t84.5 89.5q-34 41 -44 100t4 128l1 5q15 66 47.5 122t78.5 97.5t102 64.5t118 23h245l-30 -141h-244q-63 0 -110.5 -45t-64.5 -123q-17 -80 12 -123t93 -45h531l45 211h141l-45 -211h79l-30 -140h-79l-39 -186q-17 -79 -67 -146.5 t-121 -117t-157 -77.5t-175 -28h-73q-88 0 -162 28t-124 77.5t-72 117t-5 146.5zM356 355q-10 -46 4 -87t47.5 -72.5t84 -50t114.5 -18.5h73q65 0 124 18.5t106 50t78 73t41 86.5l39 185h-532q-23 0 -48.5 -4.5t-49 -20t-43.5 -44t-30 -76.5z" />
<glyph unicode="'" horiz-adv-x="301" d="M256 834l73 400h157l-93 -400h-137z" />
<glyph unicode="(" horiz-adv-x="387" d="M139.5 123q0.5 102 11.5 224.5t40 258.5q35 166 103.5 347t183.5 376h158l-23 -39q-112 -180 -176 -353t-98 -334q-20 -95 -30.5 -184.5t-14.5 -169.5t-2 -150t6 -125t9 -94t9 -58h-158q-6 45 -12.5 122t-6 179z" />
<glyph unicode=")" horiz-adv-x="417" d="M7 -178q11 19 32.5 58t49 94.5t59 125t62 150t58 170t47.5 183.5q17 80 28 166t13.5 177.5t-4 187t-25.5 195.5h156q33 -195 24 -378t-44 -348q-29 -135 -70.5 -257.5t-84 -224t-81.5 -178t-64 -121.5h-156z" />
<glyph unicode="*" horiz-adv-x="923" d="M265 939l79 150l240 -93q6 32 12 67.5t13 71.5t13.5 70.5t12.5 65.5h157l-67 -274q66 22 140.5 46t136.5 45l18 -150l-277 -75q0 -1 -0.5 -2t-0.5 -2q13 -24 28.5 -52t31.5 -56t31 -55t28 -50l-146 -92l-105 218h-3q-3 0 -4 -1h1q-1 0 -0.5 0.5t-0.5 0.5 q-23 -26 -48.5 -53.5t-51 -56t-50.5 -56t-47 -52.5l-107 91l209 213v5q-57 17 -123 38t-120 38z" />
<glyph unicode="+" horiz-adv-x="1002" d="M185 502l31 147h344l74 344h148l-74 -344h342l-31 -147h-342l-73 -343h-148l73 343h-344z" />
<glyph unicode="," horiz-adv-x="425" d="M102 -85l102 341h170l-133 -341h-139z" />
<glyph unicode="-" horiz-adv-x="1063" d="M216 502l31 147h833l-31 -147h-833z" />
<glyph unicode="." horiz-adv-x="394" d="M96 74q-5 21 0 45t19 45t33.5 37t43 25.5t46.5 9.5q25 0 44.5 -9.5t31.5 -25.5t16.5 -37t-0.5 -45t-18.5 -45t-32.5 -37t-42.5 -25.5t-48.5 -9.5q-23 0 -42.5 9.5t-32 25.5t-17.5 37z" />
<glyph unicode="/" horiz-adv-x="735" d="M-31 -168l979 1485h161l-982 -1487z" />
<glyph unicode="0" horiz-adv-x="1170" d="M223 324q1 7 3.5 31.5t7.5 62.5t13.5 86.5t20.5 103.5q12 58 30.5 125t38.5 126q25 70 74 129t115.5 101.5t147 67.5t170.5 28q88 -2 159.5 -26.5t120 -67t72.5 -102t17 -131.5v1q-4 -62 -14.5 -126.5t-23.5 -124.5q-12 -56 -24.5 -104.5t-23 -87t-18.5 -63.5t-10 -32 q-24 -73 -73 -132.5t-116 -102.5t-148 -67t-171 -25q-89 1 -160 26t-119 68.5t-71.5 103.5t-17.5 132zM375 357q-6 -44 7 -81.5t44 -66t80.5 -46t116.5 -21.5q68 4 124 22.5t98.5 47t72 66t45.5 81.5v-1q4 15 11.5 40t16.5 58t18.5 71.5t18.5 80.5q11 54 20.5 114.5 t14.5 116.5q2 40 -14 74.5t-48 61t-79.5 43t-108.5 19.5q-63 -3 -117.5 -19.5t-97.5 -43t-73.5 -61t-45.5 -74.5q-20 -56 -36 -116.5t-27 -114.5q-18 -85 -28 -153t-13 -98z" />
<glyph unicode="1" horiz-adv-x="924" d="M267 809l548 340h139l-244 -1149h-147l204 962q-107 -66 -220.5 -136.5t-216.5 -134.5z" />
<glyph unicode="2" horiz-adv-x="1146" d="M136 0l25 120q18 87 53 155t80 120t96.5 89.5t102.5 64t98.5 42.5t84.5 25q46 10 101 24t104.5 38t87.5 61.5t52 93.5q6 46 -11.5 81t-53.5 58t-87 34.5t-113 11.5q-44 0 -91.5 -5.5t-94.5 -15.5t-91.5 -23.5t-82.5 -28.5l-32 135q47 18 99.5 34t107 27.5t109.5 18 t107 6.5t104 -7t98 -23t84.5 -41.5t63.5 -62t34.5 -86t-1.5 -112.5q-14 -66 -44.5 -116t-70.5 -87t-86.5 -62.5t-93 -43t-90 -28.5t-76.5 -19h1q-8 -2 -16.5 -3t-14.5 -3h1q-41 -9 -93.5 -29t-104 -57.5t-96 -95t-68.5 -142.5h681l-31 -148h-832z" />
<glyph unicode="3" horiz-adv-x="1115" d="M178 159.5q-13 62.5 7 157.5h146q-12 -54 -6 -89t26.5 -55.5t55 -28t80.5 -7.5h161q102 0 154.5 24.5t65.5 85.5l31 147q6 28 6 48.5t-16.5 34t-53.5 20t-106 6.5h-115l32 147h118q56 1 93 4.5t60 14.5t35.5 32.5t20.5 58.5l22 105q10 45 4 74t-27 46.5t-55.5 24.5 t-81.5 7h-161q-41 0 -77.5 -6t-67 -25.5t-53 -55t-35.5 -94.5h-146q22 102 64.5 165.5t96 99t114 49t117.5 14.5h184q66 0 124 -14t97 -48.5t54.5 -92t-3.5 -144.5l-22 -107q-12 -54 -35 -100t-64 -81q28 -37 32.5 -80t-8.5 -102l-31 -148q-17 -78 -56 -128t-92 -78.5 t-116 -39.5t-126 -12h-185q-64 1 -119.5 17t-92.5 53.5t-50 100z" />
<glyph unicode="4" horiz-adv-x="1112" d="M130 253l28 129l743 767h200l-159 -748h127l-32 -148h-127l-53 -253h-146l53 253h-634zM361 401h435l122 574q-138 -143 -275.5 -284t-281.5 -290z" />
<glyph unicode="5" horiz-adv-x="1142" d="M201 162q-13 62 7 154h147q-11 -50 -6.5 -84.5t24 -55.5t54 -30t84.5 -9h162q101 0 154.5 24.5t66.5 84.5l45 211q12 57 -30 82.5t-145 25.5h-475l125 589h796l-32 -148h-649l-62 -293h353q45 -2 87 -8.5t76.5 -21.5t60 -40t38.5 -63h1q17 -55 3 -123l-45 -211 q-17 -78 -57 -128t-94 -78.5t-116.5 -39.5t-123.5 -12h-185q-67 1 -122.5 18t-92 55.5t-49.5 100.5z" />
<glyph unicode="6" horiz-adv-x="1126" d="M183.5 233.5q-4.5 63.5 7.5 135.5q26 107 81 191l389 593h160l-272 -414q42 6 82.5 7.5t76.5 1.5q77 0 132.5 -4.5t77.5 -7.5q57 -8 98.5 -41.5t62.5 -85.5q20 -48 23 -108.5t-10 -131.5q-18 -74 -50 -138t-74.5 -112t-94.5 -78.5t-111 -38.5h-4q-9 -1 -28.5 -2.5 t-47.5 -3t-62 -3t-72 -1.5q-45 0 -92 2t-92 10h1q-56 7 -95 38t-60.5 79.5t-26 112zM333.5 239.5q14.5 -47.5 46.5 -71t76.5 -29.5t89.5 -6h32q65 0 117 4t71 6q24 0 54.5 18.5t52.5 44.5v-1q24 29 44 70t32 94q10 52 8 92.5t-14 68.5t-32.5 44t-45.5 20q-7 1 -24 3t-42 4 t-56 3.5t-65 1.5q-40 0 -82.5 -3t-84.5 -9q-21 -3 -45.5 -15.5t-48.5 -38t-46 -67.5t-37 -103q-15 -83 -0.5 -130.5z" />
<glyph unicode="7" horiz-adv-x="1040" d="M271 1005l32 148h842q12 0 18.5 -9t8.5 -25.5t0.5 -40t-3.5 -53.5l-723 -1025h-165l708 1005h-718z" />
<glyph unicode="8" horiz-adv-x="1131" d="M183.5 148q-13.5 57 3.5 141l23 107q12 58 34.5 104t66.5 81q-26 38 -28.5 81.5t8.5 100.5l23 104q21 93 63 151t95 91t113.5 45t119.5 14h185q68 -1 125 -16.5t95 -50.5t52.5 -92t-3.5 -142l-23 -106q-13 -54 -36.5 -100.5t-61.5 -78.5q12 -16 19.5 -32.5t12.5 -36.5 l-1 -1q5 -26 2.5 -55t-9.5 -61l-23 -107q-20 -96 -63.5 -155t-98.5 -91.5t-116.5 -44t-117.5 -12.5h-187q-71 1 -128.5 17t-94 52t-50 93zM330.5 214q6.5 -30 28 -48t57 -25.5t83.5 -7.5h167q39 0 75 5t66 21.5t52 47.5t33 82l28 131q3 25 -3.5 41.5t-26 26t-55 14 t-91.5 5.5q-1 0 -4 -0.5t-18 -0.5t-47.5 0.5t-92.5 0.5q-89 0 -136 -10q-18 -3 -32 -8t-24.5 -15.5t-18.5 -29t-14 -48.5l-23 -107q-10 -45 -3.5 -75zM434 712q2 -21 19 -33.5t53 -17.5t97 -6h177q56 0 93 4t60 16t35.5 33.5t20.5 56.5l22 102q9 44 3.5 73.5t-26 47 t-55.5 24.5t-84 7h-162q-40 0 -76.5 -5t-66 -21t-51.5 -46t-32 -80l-22 -102q-7 -32 -5 -53z" />
<glyph unicode="9" horiz-adv-x="1136" d="M270 651.5q-3 60.5 10 131.5q18 73 50.5 136t75.5 111t95 79t111 41q7 1 26.5 3t47.5 4t63 3.5t75 1.5q45 0 92.5 -2.5t90.5 -9.5q54 -10 92.5 -41.5t60.5 -79.5t27.5 -110.5t-7.5 -135.5q-13 -54 -33.5 -101.5t-46.5 -89.5l-388 -592h-160l269 412q-38 -5 -78 -6t-79 -1 q-41 0 -77 1.5t-63.5 3.5t-45.5 3.5t-24 2.5q-57 8 -98 41t-63 86q-20 48 -23 108.5zM414.5 691.5q1.5 -40.5 12.5 -69t29.5 -44.5t43.5 -20q11 -2 15 -1.5t10 -0.5q24 -2 69.5 -6t99.5 -4q38 0 80.5 3t85.5 9q54 11 103 69.5t76 155.5q13 81 -1 128t-44.5 71t-73 30.5 t-85.5 6.5h-41q-34 0 -65.5 -1.5t-57 -3t-44.5 -3.5t-27 -2h1q-57 -9 -101 -63h-1q-23 -26 -43 -67.5t-33 -94.5q-10 -52 -8.5 -92.5z" />
<glyph unicode=":" horiz-adv-x="445" d="M140 193q-5 21 0 45t19 45t33.5 37t43 25.5t46.5 9.5q25 0 44.5 -9.5t31.5 -25.5t16.5 -37t-0.5 -45t-18.5 -45t-32.5 -37t-42.5 -25.5t-48.5 -9.5q-23 0 -42 9.5t-32 25.5t-18 37zM248 748q5 24 19 45t33.5 37t43 25.5t46.5 9.5q25 0 44.5 -9.5t32 -25.5t16.5 -37 t-1 -45t-18 -45t-32 -37t-42.5 -25.5t-48.5 -9.5q-23 0 -42.5 9.5t-32 25.5t-18 37t-0.5 45z" />
<glyph unicode=";" horiz-adv-x="469" d="M102 -85l102 341h170l-133 -341h-139zM268 748q5 24 19 45t33.5 37t43 25.5t46.5 9.5q25 0 44.5 -9.5t32 -25.5t16.5 -37t-1 -45t-18 -45t-32 -37t-42.5 -25.5t-48.5 -9.5q-23 0 -42.5 9.5t-32 25.5t-18 37t-0.5 45z" />
<glyph unicode="&#x3c;" horiz-adv-x="790" d="M224 519l23 110l511 518h186l-565 -573q37 -67 78.5 -140t83 -147.5t82.5 -147.5t78 -139h-186z" />
<glyph unicode="=" horiz-adv-x="1053" d="M200 354l31 148h799l-31 -148h-799zM263 650l31 148h799l-31 -148h-799z" />
<glyph unicode="&#x3e;" horiz-adv-x="800" d="M116 0l566 574q-38 67 -79 140t-83 147t-83 147t-78 139h187l271 -481l20 -37l-23 -110l-511 -519h-187z" />
<glyph unicode="?" horiz-adv-x="1039" d="M331 1183q47 18 99 34t106.5 27.5t109.5 18t108 6.5q49 0 100 -6.5t98 -22t86.5 -40.5t65.5 -62t35.5 -87t-2.5 -114l-1 -2q-21 -98 -59 -157t-82 -92t-89 -47t-79 -21q-14 -3 -24 -5.5t-22 -4.5l2 1q-33 -7 -62.5 -15.5t-54 -25.5t-43 -46.5t-28.5 -78.5q-5 -20 -8 -50 t-6 -73l-151 -23q2 45 6 81.5t10 64.5q20 95 60 152.5t90.5 90.5t105 47.5t104.5 24.5h-1q24 5 48 10.5t41 12.5q12 5 25 14.5t25 26.5t23 44t21 68q6 48 -12 83t-54.5 58t-87.5 34.5t-111 11.5q-44 0 -91.5 -6t-95 -16t-92.5 -23.5t-83 -29.5zM367 74q-5 21 0 45t19 45 t33.5 37t43 25.5t46.5 9.5q25 0 44.5 -9.5t31.5 -25.5t16.5 -37t-0.5 -45t-18.5 -45t-32.5 -37t-42.5 -25.5t-48.5 -9.5q-23 0 -42.5 9.5t-32 25.5t-17.5 37z" />
<glyph unicode="@" horiz-adv-x="1555" d="M217.5 288.5q-26.5 121.5 2.5 259.5q19 92 61 177t101.5 159.5t133 135.5t157 104.5t174 67.5t182.5 24q91 0 171 -24t145 -67.5t113 -104.5t76 -135.5t33.5 -159.5t-13.5 -177q-20 -92 -62 -177t-101 -159.5t-133.5 -135t-157.5 -104t-173.5 -67.5t-181.5 -24 q-138 0 -248.5 52.5t-181.5 143t-97.5 212zM360 344.5q21 -95.5 77 -167t143 -112.5t196 -41q42 0 82.5 6.5t82.5 18.5l35 164q-129 -41 -222 -41q-59 0 -105 15.5t-75 45.5t-39 75t3 105q15 69 46.5 118.5t75 81.5t97.5 47t114 15q44 0 92.5 -8t103.5 -23l8 38 q10 44 -25.5 69t-106.5 25q-50 0 -117.5 -19.5t-144.5 -62.5l-46 120q93 53 181 79t158 26q58 0 108 -15t84 -45t48.5 -74.5t1.5 -102.5l-119 -563q20 13 41 27t40 31h1q88 72 148.5 167t83.5 204q23 108 2 203.5t-76.5 167t-142 113t-195.5 41.5t-213.5 -41.5t-191 -112.5 t-148 -167t-84.5 -204t-2 -203.5zM680 413q-11 -51 13.5 -74.5t90.5 -23.5q40 0 96 11t128 37l28 133q-59 18 -108.5 26.5t-87.5 8.5q-71 0 -108.5 -26t-51.5 -92z" />
<glyph unicode="A" horiz-adv-x="1259" d="M58 0l734 1161h181l242 -1161h-163l-56 268h-607q-40 -64 -85 -134.5t-83 -133.5h-163zM484 417h481q-15 77 -29.5 146.5t-29 138t-29 139t-30.5 150.5q-47 -74 -91.5 -144.5t-89 -140.5t-89.5 -141.5t-93 -147.5z" />
<glyph unicode="B" horiz-adv-x="1249" d="M157 1l247 1162h450q60 0 110 -1t92 -6q67 -9 110 -31.5t65.5 -60.5t24.5 -94v-12q0 -51 -14 -116q-13 -61 -36 -110.5t-63 -86.5q55 -40 63 -109q2 -19 1 -40q0 -56 -14 -126v-1q-19 -88 -45.5 -149.5t-62 -102.5t-81 -64.5t-101 -35t-122 -14.5t-145.5 -3h-41zM337 149 q128 2 253.5 3.5t253.5 3.5q42 4 73.5 14t55 33t40.5 62.5t31 103.5v1q10 49 10 81q0 11 -1 21q-5 36 -36.5 54t-92 21.5t-156.5 3.5h-345zM454 700q95 0 188 -0.5t188 -0.5q78 0 124.5 8t75.5 22q22 11 37 34.5t27 79.5q9 44 9 74q0 11 -1 21q-5 34 -35 51.5t-89.5 22 t-155.5 4.5h-301z" />
<glyph unicode="C" horiz-adv-x="1139" d="M183 319q0 3 2.5 27t8 63.5t14 91t20.5 110.5q14 61 31.5 126.5t40.5 128.5l-1 -1q27 75 81 136t129.5 104t169 66.5t197.5 23.5q93 0 199 -21.5t226 -69.5l-80 -140q-109 44 -203.5 63t-173.5 19q-82 0 -149 -16t-118 -43.5t-85 -64.5t-50 -79v1q-21 -59 -37.5 -118 t-28.5 -115q-11 -50 -18 -94.5t-12 -80.5t-7.5 -60.5t-3.5 -34.5l-1 -3q0 -41 19.5 -77.5t59.5 -64t99 -43.5t138 -16q80 0 183 19.5t230 62.5l20 -140q-140 -48 -255.5 -69.5t-209.5 -21.5q-103 0 -185.5 24t-139.5 67.5t-86 104.5q-25 52 -25 114q0 10 1 21z" />
<glyph unicode="D" horiz-adv-x="1193" d="M128 29l238 1123q134 13 238 19t185 6q132 0 223.5 -17.5t147.5 -55.5q56 -36 79 -96q18 -47 18 -110q0 -16 -1 -34v1q-2 -63 -12 -128t-24 -127q-12 -57 -25.5 -108t-25.5 -90t-20 -64t-9 -31q-31 -88 -80.5 -148t-122.5 -96.5t-171.5 -52.5t-226.5 -16q-81 0 -182 6 t-229 19zM307 165q74 -6 141.5 -9t122.5 -3q110 0 184 11t122 33.5t75.5 57.5t44.5 83l8 21q6 17 8.5 28t8.5 30q8 37 22.5 86.5t26.5 106.5q12 56 20.5 115.5t13.5 118.5v-1v14q0 35 -8 63q-10 34 -45.5 58t-103.5 37t-182 13q-32 0 -62.5 -0.5t-63.5 -1.5t-70 -3.5 t-82 -5.5z" />
<glyph unicode="E" horiz-adv-x="1093" d="M122 0l247 1163h861l-32 -148h-711l-76 -360h649l-32 -148h-649l-76 -359h711l-31 -148h-861z" />
<glyph unicode="F" horiz-adv-x="1093" d="M122 0l247 1163h859l-32 -148h-711l-76 -360h651l-32 -148h-651l-107 -507h-148z" />
<glyph unicode="G" horiz-adv-x="1188" d="M188 309l1 2q1 10 3.5 36t7.5 64.5t13 86.5t20 102q13 60 31 126.5t40 129.5q30 73 85.5 134t131 104.5t167.5 67.5t193 25q93 -1 199.5 -23t226.5 -69l-80 -139q-109 43 -204.5 62t-173.5 19q-80 0 -147 -15.5t-118.5 -43t-85.5 -64.5t-49 -80q-23 -59 -39 -118.5 t-28 -115.5q-10 -48 -17.5 -92.5t-12.5 -80t-7.5 -60t-3.5 -33.5v-6q-1 -8 -1 -15q0 -34 15 -63q18 -37 57 -64.5t99.5 -43.5t143.5 -16q64 0 137.5 11.5t161.5 35.5l66 309h150l-89 -416q-135 -46 -249 -67.5t-208 -21.5q-104 0 -187.5 23.5t-141 66.5t-85.5 105 q-23 50 -23 111q0 13 1 26z" />
<glyph unicode="H" horiz-adv-x="1211" d="M123 0l246 1161h149l-107 -506h668l107 506h148l-246 -1161h-148l107 506h-668l-107 -506h-149z" />
<glyph unicode="I" horiz-adv-x="445" d="M158 0l246 1161h149l-246 -1161h-149z" />
<glyph unicode="J" horiz-adv-x="972" d="M79 31l57 146q124 -23 218 -38.5t160 -15.5q62 0 107 11.5t77 40.5t53.5 77t37.5 122l136 639h-290l32 150l438 -2l-167 -787q-23 -110 -60 -185.5t-91.5 -122t-128 -67t-169.5 -20.5q-77 0 -177 13t-233 39z" />
<glyph unicode="K" horiz-adv-x="1179" d="M123 0l246 1160h149l-113 -532q75 32 146 53.5t137 35.5q103 16 179 49t129.5 84.5t87 121t52.5 158.5l6 32h148l-6 -32q-14 -65 -36 -125.5t-54 -115.5t-74 -103t-96 -88q19 -8 33.5 -18t28.5 -23q45 -37 62 -93q9 -30 9 -65q0 -28 -6 -57l-93 -442h-150l93 441 q6 29 -2.5 55t-31.5 45.5t-62.5 31t-96.5 11.5q-80 0 -191 -28.5t-248 -96.5l-97 -459h-149z" />
<glyph unicode="L" horiz-adv-x="1076" d="M122 0l247 1164h148l-216 -1014h708l-31 -150h-856z" />
<glyph unicode="M" horiz-adv-x="1327" d="M125 0l247 1164h133l305 -466q125 115 252.5 233t251.5 233h132l-247 -1164h-147l194 917q-120 -111 -245 -226t-240 -222l-293 449l-195 -918h-148z" />
<glyph unicode="N" horiz-adv-x="1210" d="M123 0l247 1164h132l510 -798l170 798h152l-247 -1164h-152l29 137q-67 105 -128 200.5t-121 189t-121.5 189.5t-128.5 201l-194 -917h-148z" />
<glyph unicode="O" horiz-adv-x="1242" d="M183 312q0 6 2.5 31t7.5 63.5t13.5 88.5t20.5 108q13 62 31 127.5t42 130.5l-1 -1q27 76 81.5 137t129.5 103.5t167 65.5t195 23q107 0 190 -24t139 -67q55 -44 83 -104q24 -53 25 -115q0 -9 -1 -18q-5 -65 -15 -130.5t-23 -127.5q-12 -58 -25.5 -108t-24.5 -89 t-19.5 -64t-10.5 -32q-26 -75 -80 -136t-129.5 -104t-168.5 -66.5t-197 -23.5q-101 0 -183.5 22.5t-139.5 65.5q-58 42 -86 104q-24 51 -24 113q0 13 1 27zM333 330v-8q1 -36 17 -68q18 -36 57 -64.5t99 -45t141 -16.5q82 0 149 16t118 44t84.5 65t48.5 78q2 5 3.5 10.5 t3.5 11.5q9 32 28 95.5t36 141.5q11 55 21 121t15 126q-1 40 -22 77t-60.5 64.5t-97.5 44t-134 16.5q-80 0 -146.5 -16t-117.5 -43.5t-86 -64t-50 -78.5q-21 -60 -37.5 -119.5t-27.5 -114.5q-11 -50 -18 -94.5t-12 -80.5t-8 -60.5t-4 -34.5v-3z" />
<glyph unicode="P" horiz-adv-x="1122" d="M122 0l247 1163h423q79 0 151.5 -2.5t129.5 -18.5t95 -51.5t47 -100.5v2q6 -28 6 -60q1 -14 -1 -30q-4 -50 -17 -110q-18 -85 -45.5 -143.5t-64 -96.5t-81.5 -58t-97.5 -29t-113 -10.5t-127.5 -1.5h-306l-96 -453h-150zM399 602h306q57 0 103 1t83 6q32 4 57 11t44 26 t34 53.5t28 93.5v1q11 52 14 88q1 9 1 17q0 25 -7 43q-9 24 -31.5 38.5t-62.5 22t-99.5 9.5t-142.5 2h-239z" />
<glyph unicode="Q" horiz-adv-x="1245" d="M182 310q1 6 3.5 31t8 63.5t14 89t20.5 107.5q14 63 31 128.5t40 128.5q28 75 82.5 135.5t129.5 103.5t167 66.5t196 23.5q102 0 184.5 -23t139.5 -66t86 -104q25 -54 25 -118v-18v-1q-5 -63 -14.5 -128.5t-23.5 -127.5q-12 -58 -25 -108t-24.5 -89t-19.5 -64.5 t-10 -32.5q-25 -68 -71.5 -124t-111 -98t-144.5 -68.5t-172 -34.5q-3 -19 -1.5 -37.5t12.5 -33.5t33.5 -24t62.5 -9q29 0 72 6t106 20l4 -147q-137 -28 -214 -28q-65 0 -108 12.5t-69.5 33.5t-38.5 47.5t-15.5 54.5t-0.5 55.5t8 49.5q-90 8 -159.5 34.5t-116 68.5t-68.5 99 q-19 47 -19 101q0 12 1 25zM334 327v-12q0 -34 15 -65q18 -36 57 -63.5t99.5 -43.5t142.5 -17q81 1 147.5 17t117.5 43.5t85 63.5t50 77l1 6q4 10 12 34.5t18 60t21 79.5t22 94q11 52 20.5 115t13.5 118q0 41 -19.5 78t-58.5 65t-98 44.5t-138 16.5t-145 -16.5t-117 -44 t-86 -64.5t-52 -78q-20 -56 -37.5 -118t-28.5 -116q-11 -50 -18 -94.5t-12 -80t-8 -60t-4 -34.5v-5z" />
<glyph unicode="R" horiz-adv-x="1123" d="M122 -1l248 1164h381q71 0 130 -2t107 -7h-1q79 -9 128.5 -34t73.5 -69q25 -45 25 -112q0 -63 -18 -148q-31 -143 -92.5 -220.5t-167.5 -99.5q2 -14 5 -33t8 -39l1 1q2 -8 3.5 -17.5t3.5 -19.5v1q16 -75 44 -169t74 -197h-177q-26 69 -46 137t-34 128t-23 109.5t-13 80.5 q-26 -1 -55 -1.5t-61 -0.5h-299l-96 -452h-149zM399 601h299q115 0 182 6.5t95 26.5h-1q20 14 40 50.5t35 108.5q13 60 13 100q0 13 -2 23q-6 44 -42.5 66t-109 26.5t-189.5 4.5h-232z" />
<glyph unicode="S" horiz-adv-x="1081" d="M106 106l90 134q87 -44 187.5 -71t194.5 -27q57 0 108.5 10t93.5 32t72 57.5t45 85.5q6 36 -3.5 63t-30 46t-48.5 31.5t-59.5 21.5t-63.5 14.5t-59 10.5q-23 5 -63 11.5t-85 19t-89 34.5t-76 58q-32 37 -46 89q-6 24 -6 52q0 34 9 74q14 65 44 115t71 87.5t91 63t104 41 t109.5 22.5t108.5 7q106 0 208 -24.5t182 -63.5l-89 -135q-32 16 -71 29.5t-82.5 23.5t-89 15.5t-90.5 5.5q-66 0 -124.5 -11t-104.5 -34.5t-76.5 -59t-42.5 -84.5q-4 -17 -4 -32q0 -27 12 -47q18 -31 51.5 -50.5t76.5 -30.5t83 -19q32 -5 50 -8.5t27 -5.5t11.5 -3.5 t4.5 -1.5l-1 1q30 -6 68.5 -14t77.5 -22.5t74.5 -37t59.5 -57t34 -82.5q4 -20 4 -45q0 -32 -8 -70l-1 -4l-1 -1q-23 -93 -74.5 -156t-119 -101.5t-145.5 -55t-154 -16.5q-56 0 -114 8t-115 23t-112 36.5t-104 47.5z" />
<glyph unicode="T" horiz-adv-x="1008" d="M248 1015l32 149h945l-32 -149h-396l-215 -1015h-149l215 1015h-400z" />
<glyph unicode="U" horiz-adv-x="1211" d="M194 278q2 75 18 167.5t40 203.5l109 512h149l-109 -512q-19 -90 -33 -163t-19 -131q-2 -25 -2 -47q1 -33 5 -58q8 -43 37.5 -71t88 -40.5t154.5 -12.5q80 0 138 10t101 32.5t72.5 59.5t52.5 92t41.5 129t39.5 170l115 542h149l-108 -511q-20 -94 -39 -172t-39 -142 q-34 -98 -82 -167t-115 -112t-156 -62.5t-205 -19.5q-119 0 -197.5 19t-124.5 58q-47 38 -65 94q-17 52 -17 121q1 5 1 11z" />
<glyph unicode="V" horiz-adv-x="1192" d="M255 1163h162l215 -993q157 248 317 497t318 496h162l-743 -1163h-182z" />
<glyph unicode="W" horiz-adv-x="1404" d="M232 0l127 1163h149l-102 -929q52 54 107 109.5t109.5 111.5t108 111t103.5 106l238 -430q72 227 146 461t145 460h150l-367 -1163h-130l-234 425q-103 -105 -208.5 -213.5t-205.5 -211.5h-136z" />
<glyph unicode="X" horiz-adv-x="1228" d="M47 0l574 581q-39 68 -80.5 142t-83.5 149.5t-83.5 149.5t-79.5 141h190l272 -489q119 121 241 245t241 244h189l-574 -581l327 -582h-189l-275 489q-119 -121 -240 -245t-239 -244h-190z" />
<glyph unicode="Y" horiz-adv-x="1195" d="M285 1163h188l273 -489q119 121 241 245t241 244h189l-626 -633l-112 -530h-149l111 526q-41 75 -86.5 155.5t-91.5 163t-91.5 163t-86.5 155.5z" />
<glyph unicode="Z" horiz-adv-x="1167" d="M134 36q-2 17 -2 40q0 27 3 64l933 874h-745l31 148h903q20 0 25 -34q2 -16 2 -38q0 -26 -3 -59l-939 -883h752l-31 -148h-902q-22 0 -27 36z" />
<glyph unicode="[" horiz-adv-x="472" d="M88 -180l322 1512h333l-32 -149h-185l-258 -1215h185l-32 -148h-333z" />
<glyph unicode="\" horiz-adv-x="765" d="M216 1317h161l347 -1487h-159z" />
<glyph unicode="]" horiz-adv-x="486" d="M3 -181l32 149h185l258 1215h-185l31 148h333l-321 -1512h-333z" />
<glyph unicode="^" horiz-adv-x="1015" d="M225 762l461 467h158l260 -467h-186l-184 326q-78 -81 -161.5 -164.5l-161.5 -161.5h-186z" />
<glyph unicode="_" horiz-adv-x="1135" d="M39 -148l32 148h1014l-32 -148h-1014z" />
<glyph unicode="`" horiz-adv-x="465" d="M329 1236h192l85 -425h-158z" />
<glyph unicode="a" horiz-adv-x="1029" d="M164 172q-6 25 -6 54q0 35 8 74q19 89 58.5 153t95 105t125 60.5t149.5 19.5q65 0 137 -12.5t154 -36.5l17 82q7 34 -2.5 63t-34 49t-64 31.5t-91.5 11.5q-76 0 -169.5 -26t-196.5 -84l-52 122q121 69 234.5 102t208.5 33q72 0 136.5 -18.5t109 -56t64.5 -94.5 q11 -32 11 -69q0 -30 -7 -64l-141 -671h-100q-14 0 -20.5 17.5t-7.5 46.5q-196 -67 -338 -67q-76 0 -134.5 20.5t-95 59.5t-48.5 95zM310 234q6 -28 23 -48q18 -20 53 -31.5t87 -11.5q63 0 146 18t187 57l46 217q-86 28 -158 42.5t-131 14.5q-109 0 -169 -45.5t-81 -142.5 q-5 -25 -5 -45q0 -14 2 -25z" />
<glyph unicode="b" horiz-adv-x="1032" d="M123 0l271 1275h147l-78 -365q75 31 144.5 45.5t131.5 14.5q76 0 138 -20.5t106 -56.5q44 -35 67 -85q20 -44 20 -94v-13l-1 -1q-3 -47 -9.5 -95.5t-18.5 -105.5q-10 -45 -21 -86t-20 -72t-15.5 -50t-6.5 -22q-26 -72 -71 -123t-103 -83t-123.5 -47t-131.5 -15 q-70 0 -140.5 15t-134.5 44q-23 -60 -52 -60h-99zM316 218q57 -33 126.5 -52t137.5 -19q91 0 159.5 35t96.5 108q5 15 9.5 29.5t9.5 29.5q8 29 18.5 67t20.5 83q9 43 15.5 88.5t9.5 90.5l-1 -1q2 27 -11 53.5t-40 47t-67.5 33t-92.5 12.5q-57 0 -127.5 -18.5t-151.5 -60.5z " />
<glyph unicode="c" horiz-adv-x="950" d="M183 270q0 6 2 25.5t6.5 49.5t11 69t15.5 83q11 48 24.5 99.5t31.5 101.5q22 62 66.5 111.5t105.5 84.5t135.5 54t157.5 19q74 0 159 -18t182 -57l-79 -136q-86 34 -159 49t-134 15q-60 0 -109.5 -11.5t-86.5 -31t-61.5 -46t-35.5 -55.5q-17 -45 -29 -90.5t-21 -88.5 q-13 -62 -20 -111t-11 -76q0 -2 0.5 -3.5t-0.5 -3.5q-3 -32 8.5 -60t39.5 -50t73 -34.5t110 -12.5q61 0 140.5 15t179.5 49l21 -136q-114 -38 -206.5 -56.5t-166.5 -18.5q-83 0 -149.5 19t-113 54t-69.5 85q-19 41 -19 91q0 11 1 22z" />
<glyph unicode="d" horiz-adv-x="1035" d="M172 271q0 6 2 25.5t6 49.5t10.5 69t15.5 83q11 49 24.5 100.5t32.5 101.5v-1q21 57 64.5 106.5t102.5 86t130.5 57t147.5 20.5q61 0 124 -14.5t126 -46.5l77 366h147l-270 -1274h-99q-13 0 -20 16.5t-8 43.5q-75 -29 -152 -44.5t-147 -15.5q-66 0 -126 15.5t-104 48 t-67 84.5q-18 41 -18 94q0 14 1 29zM323 306v-5q0 -154 194 -154q68 0 144.5 19t149.5 53l112 525q-63 42 -126 60t-120 18q-54 0 -100 -12.5t-81.5 -33t-59 -46.5t-33.5 -53q-17 -45 -29.5 -90.5t-21.5 -88.5q-13 -62 -19.5 -111t-9.5 -76q-1 -1 -1 -2z" />
<glyph unicode="e" horiz-adv-x="1030" d="M182 271q0 6 2 25.5t6.5 49.5t11 69t15.5 83q11 48 24.5 100.5t31.5 101.5q23 59 66.5 107.5t102 83t129.5 54.5t149 22h9q78 -2 141 -21t106.5 -53.5t65.5 -83.5q19 -43 19 -96v-14q-3 -48 -10.5 -96.5t-17.5 -95.5l-25 -119h-663q-5 -24 -8 -39t-4.5 -24t-2 -13.5 t-1.5 -7.5q-3 -32 9 -60.5t40.5 -50t74 -34.5t110.5 -13q60 0 140.5 15.5t180.5 49.5l21 -138q-113 -38 -205.5 -55.5t-167.5 -17.5q-83 0 -149.5 19t-112.5 54t-70 85q-19 41 -19 91q0 11 1 22zM374 535h516q7 34 12.5 70t9.5 73l-1 -1q1 29 -11.5 54.5t-39.5 44.5 t-68.5 30.5t-98.5 12.5q-59 -1 -106 -13t-82 -31t-57.5 -44t-32.5 -53q-14 -36 -23.5 -72t-17.5 -71z" />
<glyph unicode="f" horiz-adv-x="561" d="M96 -331l241 1134h-114l31 147h114l3 12q11 48 30 103t57 102t100.5 78t161.5 31q26 0 60 -3.5t77 -10.5l-54 -146q-42 8 -69 10.5t-46 2.5q-57 0 -84.5 -13t-40.5 -30v-1q-17 -21 -27 -54t-18 -69l-3 -12h230l-31 -147h-230l-217 -1021q-17 -53 -34.5 -82.5t-37.5 -29.5 z" />
<glyph unicode="g" horiz-adv-x="1036" d="M172 267q2 50 10 101.5t19 100.5q9 44 19.5 82.5t19.5 69t15.5 50.5t8.5 26q25 72 70 123t102.5 84t123.5 48t132 15q71 0 141.5 -15t133.5 -44q23 59 52 59h99l-200 -939q-7 -32 -18.5 -70.5t-32.5 -78t-53 -77t-78.5 -66t-110.5 -46t-148 -17.5q-60 0 -134.5 11 t-170.5 37l64 142q89 -23 156 -33.5t116 -10.5q79 0 127.5 20.5t76.5 51.5t40 67.5t19 69.5l7 30q-75 -31 -144 -45.5t-131 -14.5q-76 0 -138.5 20t-106.5 56t-66 85q-20 43 -20 94v14zM323 290v-7q0 -24 11 -46q12 -26 38.5 -46.5t67 -33t94.5 -12.5q57 0 127.5 18.5 t151.5 60.5l112 525q-57 33 -127 52.5t-137 19.5q-94 0 -162 -35t-93 -107v1q-12 -38 -20.5 -67.5t-15 -54.5t-12 -46.5t-9.5 -42.5q-9 -43 -16 -88.5t-10 -90.5z" />
<glyph unicode="h" horiz-adv-x="1057" d="M123 0l270 1274h146l-77 -365q75 31 144 45.5t131 14.5q75 0 137.5 -20.5t107 -56.5t68.5 -86q20 -42 20 -90q0 -8 -1 -17q-2 -47 -10 -96t-20 -105l-105 -498h-147l105 498q9 43 16.5 88t9.5 90q1 27 -12 53.5t-40 47t-67.5 33t-92.5 12.5q-58 0 -128.5 -18.5 t-151.5 -60.5l-157 -743h-146z" />
<glyph unicode="i" horiz-adv-x="387" d="M135 0h147l182 858q3 28 3 50q0 19 -2 33q-4 29 -25 29h-99zM349 1166q4 20 16 38t28 31.5t35.5 21.5t39.5 8q41 0 64 -29q17 -21 17 -48q0 -11 -3 -22q-4 -20 -15.5 -38t-28 -31.5t-36 -21t-39.5 -7.5q-41 0 -63 28q-17 21 -17 49q0 10 2 21z" />
<glyph unicode="j" horiz-adv-x="387" d="M-205 -304l54 146q42 -8 69 -10.5t45 -2.5q52 0 82.5 14.5t47.5 38t25 53t14 59.5l207 973h99q20 0 24 -29q3 -14 3 -33q0 -22 -3 -50l-183 -861q-6 -27 -14.5 -61t-24.5 -68.5t-40 -67.5t-61 -58.5t-87.5 -41t-119.5 -15.5q-26 0 -60 3t-77 11zM348 1163q4 20 15.5 38 t28 31.5t36 21.5t39.5 8q41 0 63 -29q17 -21 17 -49q0 -10 -2 -21q-5 -20 -16.5 -38t-28 -31.5t-36 -21t-39.5 -7.5q-41 0 -63 29q-17 20 -17 47q0 10 3 22z" />
<glyph unicode="k" horiz-adv-x="1065" d="M123 0l270 1274h146l-138 -650q164 72 291 87q67 6 118 21t88.5 44t62.5 77t40 120h146q-22 -106 -64 -184.5t-110 -128.5q2 -2 5 -4t5 -4q38 -35 53 -83q8 -27 8 -56q0 -24 -5 -50l-98 -463h-146l98 462q4 22 -2.5 41.5t-24.5 34.5t-49 23.5t-76 8.5q-68 0 -163 -25.5 t-212 -84.5l-97 -460h-146z" />
<glyph unicode="l" horiz-adv-x="396" d="M134 0l271 1275h99q20 0 24 -29q2 -14 3 -33q0 -21 -3 -50l-247 -1163h-147z" />
<glyph unicode="m" horiz-adv-x="1440" d="M128 0l205 967h99q28 0 28 -63v-9q168 75 277 75q32 0 62 -7t55 -20.5t44 -32t29 -41.5q103 49 187.5 75.5t143.5 26.5q27 0 56 -5.5t54.5 -15.5t45 -25.5t29.5 -34.5l-1 1q19 -37 20 -79v-8q0 -39 -9 -82l-153 -722h-146l153 722q4 16 4 29q1 29 -15 47q-22 28 -69 27 q-39 0 -112.5 -23.5t-185.5 -82.5q-3 -17 -12 -58.5t-26 -123t-44.5 -212.5t-69.5 -326h-147l154 723q4 16 4 30q0 27 -15 45q-22 27 -67 27q-38 0 -106.5 -20.5t-169.5 -71.5l-155 -732h-147z" />
<glyph unicode="n" horiz-adv-x="1030" d="M115 0l205 967h99q26 0 26 -66v-14q107 48 198.5 70.5t166.5 22.5q67 0 119.5 -18t86.5 -51t46 -80q6 -24 5 -51q0 -26 -5 -53l-154 -727h-146l154 727q2 10 2 20q0 31 -24 55q-32 31 -115 31q-63 0 -155.5 -25.5t-209.5 -84.5l-153 -723h-146z" />
<glyph unicode="o" horiz-adv-x="1063" d="M185 266q0 5 0.5 12.5t1.5 15.5q3 30 11 87t23 129q11 49 25.5 103t32.5 103q0 2 1.5 4.5t1.5 3.5q22 60 64.5 108t100 82.5t128 55t148.5 25.5q83 0 151.5 -18t117 -52.5t74.5 -84.5q23 -45 22 -101v-13l-1 -9q-2 -23 -10.5 -88t-25.5 -149q-11 -48 -26.5 -104.5 t-32.5 -104.5q0 -1 -0.5 -1.5t-0.5 -1.5l-1 -1q-24 -60 -68.5 -110t-105 -86t-134 -56t-154.5 -20h-18q-77 4 -139 24.5t-105 54.5q-42 36 -64 84q-18 41 -18 89q0 10 1 19zM340 309q-1 -7 -1 -13q1 -24 9 -46q10 -28 35.5 -50.5t67 -37t100.5 -18.5q2 1 4.5 0.5t4.5 -0.5 q58 2 106 14t84 32t60.5 46.5t36.5 56.5q17 46 30.5 95.5t22.5 91.5q14 65 21.5 117t10.5 80q1 2 0.5 3.5t0.5 3.5v8q-1 26 -11 50q-12 28 -40 49.5t-70.5 35.5t-100.5 19q-60 -2 -107.5 -14t-83.5 -32t-60 -46t-36 -56v1q-16 -45 -30 -94.5t-23 -94.5q-14 -67 -21.5 -121.5 t-9.5 -79.5z" />
<glyph unicode="p" horiz-adv-x="1035" d="M52 -331l276 1298h100q12 0 19.5 -15t7.5 -44q75 29 151.5 44t147.5 15q66 0 126 -15.5t104 -48t67 -83.5q18 -40 18 -93q0 -14 -1 -29l-1 -2q0 -6 -2 -25.5t-6 -49.5t-10.5 -69t-15.5 -83q-11 -49 -25 -100.5t-32 -101.5q-21 -58 -64.5 -107t-103 -85t-131 -56.5 t-146.5 -20.5q-61 0 -124 14.5t-125 45.5l-83 -389h-147zM317 224q63 -42 125.5 -60.5t119.5 -18.5q53 0 99 12.5t81.5 33t59.5 47t34 53.5q17 45 29.5 90.5t21.5 87.5q12 56 18.5 103t9.5 74v8t1 9q1 12 1 22q0 63 -45 97q-52 39 -149 39q-33 0 -70 -5.5t-75 -15t-76.5 -23 t-72.5 -28.5z" />
<glyph unicode="q" horiz-adv-x="1035" d="M171 267q3 50 10.5 101.5t18.5 100.5q9 44 19.5 83.5t19.5 70t15.5 50l8.5 25.5q24 71 69 122t102.5 83.5t124 48t132.5 15.5q71 0 141.5 -15t133.5 -44q25 59 51 59h100l-276 -1298h-147l83 389q-75 -31 -144 -45.5t-131 -14.5q-75 0 -137.5 20.5t-106.5 56.5t-67 85 q-20 43 -20 94v13zM321 291v-7q0 -24 11 -46q13 -27 40 -47.5t67.5 -33t93.5 -12.5q57 0 127.5 18.5t151.5 60.5l112 525q-58 33 -127 52.5t-137 19.5q-50 0 -94.5 -11t-79.5 -33t-59 -55t-33 -76q-9 -27 -22.5 -74t-25.5 -103q-9 -42 -16 -87.5t-9 -90.5z" />
<glyph unicode="r" horiz-adv-x="596" d="M117 0l205 967h99q27 0 27 -51v-14q81 40 157.5 58t149.5 18l-23 -108q-5 -16 -21.5 -25.5t-42.5 -15.5q-50 -5 -111.5 -27t-136.5 -67l-156 -735h-147z" />
<glyph unicode="s" horiz-adv-x="880" d="M81 87l89 133q36 -18 75.5 -33.5t79 -26t78.5 -16.5t75 -6q93 0 156.5 35t80.5 102q9 34 -3.5 56.5t-41 37t-69.5 24.5t-89 19q-18 3 -50.5 8.5t-70 16t-74 29t-63.5 48.5q-26 32 -38 76q-5 20 -6 43q0 29 8 64q21 82 68 136t108 86t130 45t134 14q85 -1 170.5 -21 t152.5 -52l-90 -135q-26 13 -57 24t-65.5 19t-70.5 13t-71 5q-50 0 -94.5 -8t-79 -24.5t-57.5 -43t-32 -62.5q-2 -11 -3 -21q-1 -26 15 -44q20 -24 55 -38.5t74.5 -21.5t68.5 -13q19 -4 52 -9.5t69 -16t71.5 -28.5t61.5 -48t36 -74q5 -20 4 -43q0 -29 -7 -64l-2 -4 q-20 -78 -63 -131t-99 -85t-121 -46t-129 -14q-91 0 -186 25.5t-180 69.5z" />
<glyph unicode="t" horiz-adv-x="658" d="M227 184v11q1 29 5 58q6 34 11 61l104 488h-116l31 147h116l69 325h146l-69 -325h230l-31 -147h-230l-104 -488q-6 -30 -11 -60t2 -53.5t31.5 -38.5t77.5 -15q18 0 46 2.5t74 10.5l-9 -146q-46 -8 -81 -11t-61 -3q-69 0 -113.5 15.5t-70.5 41.5t-36 59t-11 68z" />
<glyph unicode="u" horiz-adv-x="1039" d="M174 136q-6 23 -6 49.5t6 54.5l154 727h146l-154 -727q-2 -11 -2 -20q0 -32 24 -56q32 -30 115 -30q64 0 155.5 25t208.5 85l154 723h146l-205 -967h-98q-17 0 -23 21t-4 59q-109 -48 -200 -70t-165 -23q-68 1 -120.5 19t-86 51t-45.5 79z" />
<glyph unicode="v" horiz-adv-x="977" d="M210 969h123q13 0 27.5 -23.5t29.5 -67.5l141 -669q120 189 243 381t242 379h159l-623 -969h-136z" />
<glyph unicode="w" horiz-adv-x="1328" d="M178 244l154 722h146l-154 -722q-4 -20 5 -39.5t28.5 -35t49 -25.5t65.5 -10q37 0 75.5 13t78.5 42l111 525h146l-111 -523q32 -30 60.5 -43.5t70.5 -13.5q36 0 69.5 9.5t59.5 25.5t43.5 35.5t21.5 39.5l154 722h147l-154 -722q-12 -57 -49.5 -104.5t-89 -81 t-112.5 -52.5t-121 -19q-55 0 -106.5 17.5t-93.5 55.5q-59 -38 -117.5 -55.5t-113.5 -17.5q-59 0 -112 19t-91 52q-36 34 -54 82q-10 28 -11 59q0 22 5 45z" />
<glyph unicode="x" horiz-adv-x="1068" d="M30 0l514 485q-36 55 -75.5 118t-80 126.5t-79.5 125t-73 115.5h193l236 -371q98 92 198 186t197 185h193l-515 -485l309 -485h-192l-239 371q-97 -92 -197 -186t-197 -185h-192z" />
<glyph unicode="y" horiz-adv-x="1049" d="M183 -278l67 141q88 -23 154.5 -32.5t116.5 -9.5q76 0 123.5 18t76 46.5t42 63t20.5 67.5l9 42q-75 -31 -144.5 -45t-131.5 -14q-76 0 -138 20t-106 55.5t-67 84.5q-20 43 -20 95v13q3 50 10.5 101.5t18.5 100.5l107 499h146l-106 -499q-9 -42 -16 -88t-10 -91 q-1 -27 12 -53t40 -46.5t67 -33t93 -12.5q57 0 128 18.5t152 60.5l158 744h147l-201 -940q-6 -31 -18 -69.5t-33 -78t-52.5 -76.5t-78.5 -66t-111 -46.5t-148 -17.5q-60 0 -135.5 11t-171.5 37z" />
<glyph unicode="z" horiz-adv-x="984" d="M124 29q-2 14 -2 35t2 48l5 23l733 689h-586l31 146h741q18 0 24 -29q3 -14 3 -33q0 -21 -3 -50l-5 -21l-733 -690h587l-31 -147h-742q-19 0 -24 29z" />
<glyph unicode="{" horiz-adv-x="568" d="M150 502l32 148q85 0 102 10q7 3 14 9t13 17.5t11.5 29t11.5 43.5l57 270q20 95 65.5 153.5t105 91t128 44t134.5 12.5l-31 -149q-47 0 -89 -4.5t-75 -20.5t-56.5 -46t-34.5 -81l-57 -270q-13 -59 -34 -104.5t-54 -79.5q17 -33 19.5 -79t-9.5 -103l-58 -272 q-10 -48 -0.5 -77.5t35 -46t65.5 -22.5t90 -6l-32 -148q-72 0 -136 13t-108 47t-62 92t1 148l58 272q5 24 6.5 42t-0.5 32q-1 10 -6.5 16.5t-18 10.5t-34 6t-53.5 2z" />
<glyph unicode="|" horiz-adv-x="377" d="M87 -170l317 1491h148l-317 -1491h-148z" />
<glyph unicode="}" horiz-adv-x="565" d="M-2 -179l31 149q48 0 89.5 4.5t75 20.5t56.5 45.5t34 80.5l58 271q12 59 33 104.5t55 78.5q-18 34 -20 80t10 103l57 271q10 48 0.5 77.5t-35 46.5t-65 23t-90.5 6l31 148q72 0 136 -13.5t108.5 -47t62.5 -92t-1 -148.5l-57 -271q-10 -47 -6 -74q0 -10 5.5 -16.5 t18 -10.5t34 -6t53.5 -2l-31 -148q-86 0 -102 -10q-15 -7 -27 -27t-23 -72l-58 -271q-20 -95 -65 -153t-105 -90.5t-128.5 -44t-134.5 -12.5z" />
<glyph unicode="~" horiz-adv-x="1095" d="M214 503q13 30 38 65t60.5 65.5t81 50.5t100.5 20q52 0 109.5 -20.5t120.5 -66.5l-1 1q50 -34 87.5 -48t63.5 -14q19 0 35 9t28.5 22t22 27t14.5 24l148 -41q-15 -30 -41 -65.5t-62 -66t-81 -50.5t-99 -20q-106 0 -231 88q-48 34 -85 47t-63 13q-20 0 -36.5 -8.5 t-29 -20.5t-21.5 -26t-15 -25z" />
<glyph unicode="&#xad;" horiz-adv-x="1063" d="M216 502l31 147h833l-31 -147h-833z" />
<glyph unicode="&#xde;" horiz-adv-x="1614" d="M119 0l201 949q123 44 225 64t185 20q94 0 168.5 -22.5t124 -63t70.5 -97t6 -124.5l-92 -434q-7 -32 0 -60t26 -49t48 -33.5t65 -12.5h50q37 0 71 12.5t61.5 33.5t46.5 49t26 60l155 732h147l-155 -732q-14 -64 -51.5 -119t-89.5 -96t-115 -64.5t-128 -23.5h-50 q-65 0 -118 23.5t-88 64.5t-49 96.5t0 118.5l93 433q6 30 -6.5 58.5t-43.5 51t-81.5 36.5t-121.5 14q-52 0 -116.5 -10.5t-137.5 -30.5l-179 -844h-147zM773 -165l148 56q6 -26 19.5 -49t32.5 -39.5t43 -26t51 -9.5h50q28 0 56 9.5t53.5 26.5t48 39.5t38.5 48.5l126 -56 q-31 -48 -71 -87.5t-86 -68t-96 -44t-100 -15.5h-50q-51 0 -94.5 15.5t-77.5 44t-57.5 68t-33.5 87.5z" />
<glyph unicode="&#x152;" d="M-379 1348l31 147h194l-28 -131h439l-31 -148h-585l23 110q2 6 3.5 12t3.5 11q-14 0 -27.5 -0.5t-22.5 -0.5z" />
<glyph unicode="&#x153;" d="M-322 1617l31 146h193l-27 -130h339l-31 -146h-484l23 109q1 5 2.5 10.5t3.5 10.5h-50z" />
<glyph unicode="&#x178;" d="M-251 1440l46 218l556 45l-19 -148l-418 -35q-11 -38 -23.5 -59t-32.5 -21h-109z" />
<glyph unicode="&#x2c6;" d="M-693 1280l4 20q8 38 30 75t53 68t67 53t73 31l94 -39q26 11 53.5 22l52.5 21q16 -6 19.5 -7.5t4.5 -2.5q53 -24 83.5 -69t30.5 -103q31 24 37 57l26 119h134l-26 -119q-15 -73 -73.5 -131t-150.5 -90h-70q-18 0 -23.5 24t-1.5 68l5 23q5 24 -0.5 44t-24.5 34 q-25 -10 -54.5 -21t-52.5 -20l-89 41q-49 -31 -58 -78l-25 -115h-94q-15 0 -22 25t-2 70z" />
<glyph unicode="&#x2dc;" d="M-617 1145l58 275h107q17 0 22 -21t0 -60l-10 -47l428 2l-32 -149h-573z" />
<glyph unicode="&#x2000;" horiz-adv-x="913" />
<glyph unicode="&#x2001;" horiz-adv-x="1827" />
<glyph unicode="&#x2002;" horiz-adv-x="913" />
<glyph unicode="&#x2003;" horiz-adv-x="1827" />
<glyph unicode="&#x2004;" horiz-adv-x="609" />
<glyph unicode="&#x2005;" horiz-adv-x="456" />
<glyph unicode="&#x2006;" horiz-adv-x="304" />
<glyph unicode="&#x2007;" horiz-adv-x="304" />
<glyph unicode="&#x2008;" horiz-adv-x="228" />
<glyph unicode="&#x2009;" horiz-adv-x="365" />
<glyph unicode="&#x200a;" horiz-adv-x="101" />
<glyph unicode="&#x2010;" horiz-adv-x="1063" d="M216 502l31 147h833l-31 -147h-833z" />
<glyph unicode="&#x2011;" horiz-adv-x="1063" d="M216 502l31 147h833l-31 -147h-833z" />
<glyph unicode="&#x2012;" horiz-adv-x="1063" d="M216 502l31 147h833l-31 -147h-833z" />
<glyph unicode="&#x2013;" horiz-adv-x="1043" d="M207 502l31 147h833l-31 -147h-833z" />
<glyph unicode="&#x2014;" horiz-adv-x="1302" d="M219 502l31 147h1050l-31 -147h-1050z" />
<glyph unicode="&#x2018;" horiz-adv-x="311" d="M281 914l73 400h157l-93 -400h-137z" />
<glyph unicode="&#x2019;" horiz-adv-x="321" d="M289 914l73 400h157l-93 -400h-137z" />
<glyph unicode="&#x201a;" d="M-689 1145l21 98q4 20 31.5 31t74.5 17h389q14 35 28.5 53.5t30.5 18.5h99l-46 -218h-628z" />
<glyph unicode="&#x201e;" d="M-689 1145l21 98q4 20 31.5 30.5t75.5 17.5h166q14 35 29 53.5t29 18.5h99l-15 -72h81q14 35 28.5 53.5t30.5 18.5h99l-46 -218h-629z" />
<glyph unicode="&#x2022;" horiz-adv-x="705" d="M276 494q-8 36 1 77q9 40 32.5 76t56.5 63t72 42.5t79 15.5q41 0 74 -15.5t54 -42.5t29 -63t-1 -76q-9 -41 -32 -77t-55.5 -63t-72 -42.5t-80.5 -15.5q-40 0 -73 15.5t-54.5 42.5t-29.5 63z" />
<glyph unicode="&#x2026;" horiz-adv-x="1334" d="M189 111q4 21 16 40t29 32.5t37 21.5t41 8q43 0 65.5 -29.5t13.5 -72.5q-5 -21 -16.5 -39.5t-28 -32.5t-37 -22t-41.5 -8q-42 0 -65 30t-14 72zM587 111q4 21 16 40t29 32.5t37 21.5t41 8q43 0 65.5 -29.5t13.5 -72.5q-5 -21 -16.5 -39.5t-28 -32.5t-37 -22t-41.5 -8 q-42 0 -65 30t-14 72zM983.5 71.5q-4.5 18.5 0.5 39.5q4 21 16.5 40t29 32.5t37 21.5t41.5 8q43 0 65.5 -29.5t13.5 -72.5q-5 -21 -16.5 -39.5t-28 -32.5t-37 -22t-41.5 -8t-38 8t-27.5 22t-15 32.5z" />
<glyph unicode="&#x202f;" horiz-adv-x="365" />
<glyph unicode="&#x2039;" d="M-4 1185l70 332h147l-71 -332h-146z" />
<glyph unicode="&#x203a;" d="M-134 1496l71 331h146l-71 -331h-146z" />
<glyph unicode="&#x205f;" horiz-adv-x="456" />
<glyph unicode="&#x20ac;" horiz-adv-x="925" d="M190 850q38 40 83 72t94 54.5t99 34.5t99 12h65q51 0 95 -11.5t82 -32.5q16 8 32.5 22t30.5 29t23.5 28.5t11.5 21.5h146q-11 -53 -34.5 -89t-50.5 -61v1q-25 -25 -54 -44q32 -48 43 -108.5t-3 -128.5l-60 -281q-16 -75 -58.5 -140t-103.5 -114.5t-134.5 -80 t-151.5 -36.5l-116 -2l-124 460h159l86 -313q54 3 103.5 22t89 49.5t67 70t37.5 84.5l60 281q10 46 -1.5 87.5t-39 72.5t-70.5 49t-96 18h-65q-71 0 -141 -39t-126 -102z" />
<glyph unicode="&#x2122;" d="M-409 1143q-7 32 1 70q8 36 28.5 68t49.5 56.5t64 38.5t73 14q36 0 65 -14t48 -38.5t26.5 -56.5t-0.5 -68q-8 -38 -29 -70t-50 -56t-64 -37.5t-71 -13.5q-38 0 -67.5 13.5t-48 37.5t-25.5 56zM-291 1213q-5 -26 8 -44t39 -18q25 0 46.5 18t26.5 44q6 26 -8 43t-39 17 q-26 0 -46.5 -17t-26.5 -43z" />
<glyph unicode="&#x25fc;" horiz-adv-x="970" d="M0 0v970h970v-970h-970z" />
</font>
</defs>
</svg>
