<?xml version="1.0" standalone="no"?>
<!DOCTYPE svg PUBLIC "-//W3C//DTD SVG 1.1//EN" "http://www.w3.org/Graphics/SVG/1.1/DTD/svg11.dtd" >
<svg xmlns="http://www.w3.org/2000/svg">
<metadata></metadata>
<defs>
<font id="superspace_lightitalic" horiz-adv-x="0" >
<font-face units-per-em="2048" ascent="1638" descent="-410" />
<missing-glyph horiz-adv-x="690" />
<glyph unicode="&#x2018;&#x2018;" horiz-adv-x="588" d="M301 886l67 364h105l-85 -364h-87zM540 886l67 364h105l-85 -364h-87z" />
<glyph unicode="&#x2019;&#x2019;" horiz-adv-x="588" d="M301 886l67 364h105l-85 -364h-87zM540 886l67 364h105l-85 -364h-87z" />
<glyph />
<glyph unicode="&#xd;" horiz-adv-x="579" />
<glyph unicode=" "  horiz-adv-x="690" />
<glyph unicode="&#x09;" horiz-adv-x="690" />
<glyph unicode="&#xa0;" horiz-adv-x="690" />
<glyph unicode="!" horiz-adv-x="423" d="M150 77q3 16 12.5 30.5t22.5 25.5t28.5 17t31.5 6q32 0 50 -23t11 -56q-3 -16 -12.5 -30.5t-22.5 -25t-28.5 -16.5t-31.5 -6q-32 0 -50 23t-11 55zM214 221l183 945h121l-216 -945h-88z" />
<glyph unicode="&#x22;" horiz-adv-x="553" d="M301 886l67 364h105l-85 -364h-87zM540 886l67 364h105l-85 -364h-87z" />
<glyph unicode="#" horiz-adv-x="1364" d="M93 313l20 96h295l175 344h-272l20 95h300l159 315h100l-158 -315h442l158 315h101l-158 -314h239l-20 -96h-268l-172 -343h244l-21 -97h-273l-158 -314h-102l160 314h-443l-158 -314h-102l159 314h-267zM509 409h442l175 344h-443z" />
<glyph unicode="$" horiz-adv-x="1084" d="M125 98l59 88q85 -43 188 -69.5t203 -26.5q68 0 127.5 12t106.5 38.5t81 69.5t52 105q9 46 0 78.5t-30.5 55t-52.5 36.5t-66 23.5t-72 16.5t-70 16q-18 4 -56 9.5t-83 17.5t-91 32.5t-80 55.5t-49.5 86t0.5 124v2q24 91 76 151t119 96t142 52t146 18l27 123h97l-27 -123 q91 -6 171 -26t140 -48l-58 -89q-30 15 -68 27.5t-81.5 21.5t-91 14.5t-95.5 5.5q-75 0 -141.5 -13t-119 -40.5t-89 -70.5t-51.5 -102q-10 -48 0.5 -82t35 -57t58.5 -37.5t71 -24t73 -16t65 -13.5l1 -1q24 -6 63 -12.5t82.5 -18.5t86 -32.5t73 -54.5t43.5 -84t-2 -122v-2 q-21 -78 -63 -134t-98 -93.5t-122 -57.5t-135 -25l-26 -125h-97l25 122q-104 4 -207 31t-190 72z" />
<glyph unicode="%" horiz-adv-x="1286" d="M163 0l1103 1161h121l-1104 -1161h-120zM231 732q-8 39 1 84l25 118q10 45 35 84.5t60 68.5t78 46t88 17h129q44 0 80 -17t59 -46t32 -68.5t-1 -84.5l-25 -118q-9 -45 -34.5 -84t-61.5 -68.5t-79 -46.5t-87 -17h-129q-45 0 -80.5 17t-58.5 46.5t-31 68.5zM321 767.5 q5 -22.5 18.5 -39.5t34 -27t46.5 -10h129q25 0 50 10t46 27t35.5 39.5t20.5 48.5l25 118q6 26 1 49t-18.5 40t-34.5 26.5t-46 9.5h-129q-26 0 -51 -9.5t-45.5 -26.5t-35 -40t-20.5 -49l-25 -118q-6 -26 -1 -48.5zM731.5 141.5q-8.5 39.5 1.5 84.5l25 118q9 45 34.5 84.5 t61 68.5t78.5 46t88 17h128q45 0 80.5 -17t58.5 -46t31.5 -68.5t-0.5 -84.5l-25 -118q-10 -45 -35 -84.5t-60.5 -68.5t-78.5 -46t-88 -17h-128q-45 0 -80.5 17t-59 46t-32 68.5zM823 177.5q5 -22.5 18.5 -39.5t34 -27t46.5 -10h128q26 0 51 10t46 27t35.5 39.5t20.5 48.5 l25 118q5 26 0 48.5t-18.5 39.5t-34.5 27t-47 10h-128q-26 0 -50.5 -10t-45 -27t-35.5 -39.5t-20 -48.5l-25 -118q-6 -26 -1 -48.5z" />
<glyph unicode="&#x26;" horiz-adv-x="1267" d="M229 346l9 43q17 79 53.5 134.5t86.5 85.5l24 13l-9 9q-40 39 -53.5 101t1.5 135l1 6q14 63 45.5 117.5t75.5 94t97.5 62t112.5 22.5h230l-19 -90h-229q-40 0 -76 -14.5t-65 -41.5t-50.5 -65.5t-31.5 -87.5q-20 -99 16.5 -152.5t117.5 -55.5h595l48 224h90l-48 -224h10 h74l-19 -89h-84l-48 -227q-17 -77 -66 -143.5t-119.5 -115t-156 -76t-173.5 -27.5h-78q-87 0 -161 27.5t-124 76t-72 115t-5 143.5zM320 347q-12 -55 4.5 -104t55 -86.5t97.5 -59.5t133 -22h78q75 0 144 22t123.5 59.5t91 87t47.5 103.5l48 226h-595q-29 0 -61.5 -6t-63 -25 t-55.5 -55.5t-38 -97.5z" />
<glyph unicode="'" horiz-adv-x="301" d="M296 886l67 364h105l-85 -364h-87z" />
<glyph unicode="(" horiz-adv-x="387" d="M165 113.5q1 103.5 13 230t42 269.5q37 174 106 359t184 379h102q-60 -96 -107 -191.5t-83 -189t-62 -184t-44 -176.5q-32 -153 -43 -286.5t-10 -238.5t8.5 -176t12.5 -98h-102q-6 44 -12 121.5t-5 181z" />
<glyph unicode=")" horiz-adv-x="417" d="M45 -189q11 18 32 56t48 93t58 125t61 153t58.5 176.5t49.5 195.5q37 174 47 361t-26 380h100q33 -194 23 -381t-47 -360q-30 -142 -72 -268t-85.5 -229.5t-82.5 -180.5t-64 -121h-100z" />
<glyph unicode="*" horiz-adv-x="923" d="M303 987l54 100l242 -93q6 5 13 8.5l15 7.5l51 280h105l-67 -280q10 -8 19 -16l283 93l11 -100l-281 -77q-5 -18 -16 -33l121 -215l-97 -62l-106 222q-5 -1 -10 -1.5t-10 -0.5t-9.5 0.5t-9.5 1.5l-199 -222l-72 61l213 216q-5 15 -2 33z" />
<glyph unicode="+" horiz-adv-x="1002" d="M211 533l20 96h365l78 365h98l-78 -365h363l-20 -96h-363l-78 -364h-98l78 364h-365z" />
<glyph unicode="," horiz-adv-x="425" d="M134 -90l91 302h117l-119 -302h-89z" />
<glyph unicode="-" horiz-adv-x="1053" d="M222 533l20 96h825l-20 -96h-825z" />
<glyph unicode="." horiz-adv-x="394" d="M136 88q3 16 12.5 30.5t22.5 25t28.5 16.5t31.5 6q32 0 49.5 -23t10.5 -55q-3 -16 -12 -30.5t-21.5 -25t-28 -16.5t-31.5 -6q-32 0 -50.5 23t-11.5 55z" />
<glyph unicode="/" horiz-adv-x="713" d="M-33 -178l1000 1516h106l-1003 -1518h-102z" />
<glyph unicode="0" horiz-adv-x="1160" d="M221 314v1l2.5 24t8 64.5t14.5 95t22 117.5q14 63 32 129.5t41 132.5q24 70 71.5 128t113.5 100t147 66t171 26q88 -2 158.5 -26t119.5 -65.5t72.5 -99.5t16.5 -129q-4 -66 -15 -132.5t-25 -129.5q-13 -63 -27 -117.5t-25.5 -95t-19.5 -64.5l-8 -24v-1q-23 -72 -71 -130 t-114.5 -100t-147.5 -65.5t-170 -24.5q-90 1 -161.5 25t-119.5 66t-70.5 100t-15.5 129zM322 347q-8 -54 5.5 -99.5t48.5 -79.5t93 -54t140 -23q85 3 150 23t113.5 53.5t81 79.5t51.5 100q5 16 13 43t17.5 62t20 76.5t19.5 87.5q13 60 23 124t15 125q4 49 -12.5 91.5t-53 74 t-92.5 50t-131 20.5q-77 -2 -141.5 -20.5t-114 -50t-83.5 -74t-52 -91.5q-21 -61 -38 -125t-30 -124q-9 -46 -16.5 -87.5t-13 -76.5t-9 -62t-4.5 -43z" />
<glyph unicode="1" horiz-adv-x="914" d="M285 823l543 337h108l-246 -1160h-96l223 1050l-490 -305z" />
<glyph unicode="2" horiz-adv-x="1136" d="M136 0l20 97q18 87 53.5 155.5t80.5 121t96.5 90t102.5 64t99 42.5t86 25q54 12 116.5 27.5t119.5 43.5t100.5 73t58.5 116q10 60 -9 103t-60 70.5t-102 40t-134 12.5q-48 0 -97.5 -5.5t-96.5 -14.5t-90.5 -21.5t-79.5 -27.5l-21 89q85 33 191.5 55t214.5 22 q78 0 153.5 -16t132 -53t84.5 -99t12 -153v-1q-15 -70 -49 -121.5t-78.5 -89t-96 -62t-101 -41t-93 -26t-72.5 -16.5h-1q-49 -11 -112 -34.5t-124 -69.5t-111.5 -118.5t-74.5 -180.5h725l-20 -97h-823z" />
<glyph unicode="3" horiz-adv-x="1105" d="M171.5 139q-14.5 55 3.5 138h96q-12 -58 -4 -95t33.5 -58.5t67.5 -30t98 -8.5h172q122 0 187.5 33t82.5 114l33 156q8 37 8.5 64.5t-19 45.5t-65 27t-128.5 9h-92l20 96h95q69 1 114 6t74 20t44.5 43.5t26.5 77.5l23 111q12 57 5 94t-32 58.5t-67 30.5t-99 9h-172 q-50 0 -94 -6.5t-80 -27t-62.5 -58.5t-39.5 -100h-96q19 89 59 144.5t92 87t110 43.5t113 13h195q64 0 120.5 -13.5t95 -46.5t53.5 -88.5t-3 -139.5l-24 -112q-14 -60 -40.5 -110t-80.5 -82q40 -38 48 -84t-6 -111l-33 -157q-16 -74 -54 -121t-89.5 -74t-112.5 -37.5 t-122 -11.5h-195q-63 1 -117.5 15.5t-91 47.5t-51 88z" />
<glyph unicode="4" horiz-adv-x="1102" d="M131 269l20 97l770 794h168l-169 -794h134l-20 -97h-134l-57 -269h-96l57 269h-673zM273 366h551l155 729z" />
<glyph unicode="5" horiz-adv-x="1132" d="M195.5 140.5q-13.5 54.5 3.5 135.5h96q-11 -54 -4.5 -90.5t31 -59t67 -32t102.5 -9.5h172q123 0 188.5 33t82.5 113l47 224q17 77 -33 111t-176 34h-474l120 565h785l-20 -97h-689l-79 -371h405q44 -2 85 -8t74.5 -20.5t58.5 -37.5t37 -59q17 -52 3 -117l-47 -224 q-16 -74 -55 -121t-91 -74t-113 -37.5t-120 -11.5h-196q-65 1 -120 16t-91 49t-49.5 88.5z" />
<glyph unicode="6" horiz-adv-x="1116" d="M179 229q-4 62 8 133q14 54 34 101.5t47 89.5l401 611h105l-295 -449q57 14 114 16.5t108 2.5q46 0 86 -2t69 -4t46 -4t18 -2q54 -8 93 -39.5t59 -81.5q20 -47 23 -107t-11 -132q-18 -73 -48.5 -135.5t-71.5 -109.5t-91 -76.5t-106 -36.5v-2q-1 0 -18.5 -1.5t-48 -4 t-71 -4t-86.5 -1.5q-45 0 -93.5 2.5t-96.5 10.5q-54 7 -91 37.5t-58 78t-25 109.5zM270 240q5 -49 24 -80.5t48.5 -47.5t65.5 -23t76 -7.5t78 -0.5t72.5 1.5t62.5 3.5t47 4t26 3h3q35 5 67.5 24.5t63.5 54.5q29 34 51.5 82t36.5 108q13 63 10 110.5t-18 81t-40 53t-56 24.5 h-3q-7 1 -25.5 3t-45.5 4t-61 3.5t-72 1.5q-44 0 -90 -2.5t-91 -9.5q-64 -9 -118 -67q-28 -23 -56.5 -76.5t-46.5 -125.5q-14 -73 -9 -122z" />
<glyph unicode="7" horiz-adv-x="1030" d="M281 1067l21 97h864q8 0 7.5 -26.5t-5.5 -74.5l-750 -1063h-108l751 1067h-780z" />
<glyph unicode="8" horiz-adv-x="1121" d="M181 141q-13 55 3 136l24 114h4h-3q14 65 41.5 114.5t83.5 82.5q-3 5 -7.5 8t-9.5 7q-27 36 -30 78.5t8 98.5h-1l25 111q19 89 59.5 145t92.5 87.5t111 43t116 13.5h196q66 -1 122 -15.5t92.5 -48t50.5 -88.5t-3 -137l-24 -112q-14 -62 -42 -112t-79 -79q23 -20 33.5 -40 t15.5 -45q5 -26 2 -53.5t-9 -58.5l-25 -114q-20 -92 -61.5 -149t-95 -88.5t-113 -42.5t-114.5 -12h-199q-69 1 -124.5 16.5t-91 50t-48.5 89.5zM275.5 182.5q7.5 -37.5 33 -60t68.5 -32t102 -9.5h177q47 0 91 6.5t80.5 27t63.5 59t41 103.5l25 114h1q9 43 6 71t-24.5 44.5 t-66.5 23t-120 8.5q-3 0 -5 -0.5t-4 -0.5v1h-164q-48 0 -85 -2.5t-65 -8.5q-26 -5 -45.5 -12t-34.5 -21t-25.5 -38.5t-19.5 -64.5l-25 -114q-12 -57 -4.5 -94.5zM384.5 711.5q1.5 -27.5 22 -44t64 -24t117.5 -8.5h188q69 0 114.5 5.5t74.5 21t45 44.5t26 76l23 109 q12 55 5 92t-32 59t-67 31t-102 9h-172q-49 0 -93.5 -6t-80.5 -26.5t-62.5 -58t-39.5 -100.5l-23 -109q-9 -43 -7.5 -70.5z" />
<glyph unicode="9" horiz-adv-x="1126" d="M272 670q-2 60 11 131q18 74 48.5 136.5t71 110t90.5 76.5t107 37l18 2t48.5 4.5t71 4.5t86.5 2t94 -2.5t95 -10.5q54 -9 91 -38.5t58 -77t25 -109.5t-9 -135q-27 -107 -79 -190l-400 -611h-106l294 450q-7 -3 -13.5 -4.5t-13.5 -3.5q-50 -8 -99 -10t-95 -2t-85.5 2 t-69 4t-47 4l-17.5 2q-54 8 -93 39t-60 82q-20 47 -22 107zM374 801q-23 -123 8.5 -191t97.5 -77l3 -1q6 0 24.5 -2t45 -4.5t60.5 -4t72 -1.5q44 0 90 3t92 10q70 11 129.5 79t91.5 189q13 74 7.5 124t-24.5 81t-49 47t-66 22.5t-75.5 6.5h-76.5q-38 0 -72.5 -1.5t-62 -3.5 t-46.5 -3.5t-26 -2.5h-3q-36 -6 -69 -25.5t-62 -54.5q-28 -32 -51.5 -80.5t-37.5 -109.5z" />
<glyph unicode=":" horiz-adv-x="445" d="M182 204q3 16 12 30.5t22 25t28.5 16.5t31.5 6q32 0 50 -23t11 -55q-3 -16 -12.5 -30.5t-22 -25t-28 -16.5t-31.5 -6q-32 0 -50 23t-11 55zM299 754q3 16 12 30t22 24.5t28.5 17t31.5 6.5q32 0 50 -23t11 -55q-3 -16 -12.5 -30.5t-22 -25t-28 -17t-31.5 -6.5 q-32 0 -50 23.5t-11 55.5z" />
<glyph unicode=";" horiz-adv-x="469" d="M185 -90h89l63 302h-117zM316 723.5q-3 14.5 0 30.5q7 32 34.5 55t59.5 23q33 0 51 -23t11 -55t-34.5 -55.5t-60.5 -23.5q-16 0 -28.5 6.5t-21 17t-11.5 25z" />
<glyph unicode="&#x3c;" horiz-adv-x="780" d="M230 531l21 97l30 31l493 499h122l-572 -578l326 -580h-122l-281 501z" />
<glyph unicode="=" horiz-adv-x="1043" d="M204 376l21 97h789l-21 -97h-789zM271 690l21 97h789l-21 -97h-789z" />
<glyph unicode="&#x3e;" horiz-adv-x="790" d="M151 0l571 580l-325 578h122l281 -499l17 -31l-21 -97l-30 -30l-493 -501h-122z" />
<glyph unicode="?" horiz-adv-x="1029" d="M322 1104q42 16 91 30.5t101.5 24.5t106.5 16t108 6q49 0 100 -6.5t97.5 -21.5t85.5 -39t65 -60t36 -84t-2 -111v-2q-15 -70 -39.5 -119t-54 -82.5t-62 -53t-63.5 -31t-59 -17.5t-48 -11q-43 -9 -82 -18.5t-72 -30.5t-57.5 -58t-38.5 -102q-5 -23 -8 -48.5t-5 -56.5 l-99 -15q2 33 5.5 62.5t8.5 57.5q17 79 49 131t72 84.5t85.5 50t90 28t85 18t70.5 20.5q18 7 35.5 19t33 33t30 54.5t26.5 84.5q11 61 -8.5 104t-62 70.5t-103.5 40t-132 12.5q-48 0 -98 -5.5t-97.5 -15t-91 -22t-79.5 -27.5zM391 77q3 16 12.5 30.5t22.5 25.5t29 17t32 6 q32 0 49.5 -23t10.5 -56q-3 -16 -12.5 -30.5t-22 -25t-28 -16.5t-31.5 -6q-32 0 -50.5 23t-11.5 55z" />
<glyph unicode="@" horiz-adv-x="1545" d="M209 288.5q-27 123.5 3 263.5q20 94 62.5 180.5t102.5 161.5t135.5 137t160 106.5t176.5 69t186 24.5q93 0 174 -24.5t147 -69t115 -106.5t77.5 -137t34.5 -162t-14 -180t-63 -180t-103 -162t-135.5 -137t-160 -106.5t-176 -68.5t-184.5 -24q-141 0 -253 53.5t-185 145.5 t-100 215.5zM300.5 323.5q23.5 -106.5 86 -186t160 -125.5t219.5 -46q51 0 103.5 9t103.5 26l50 238q-157 -56 -268 -56q-56 0 -99 14.5t-70.5 43t-37.5 70.5t2 98q14 65 44 112t71.5 77t93 44.5t108.5 14.5q51 0 110 -11.5t126 -31.5l17 80q13 60 -30 95t-133 35 q-57 0 -126.5 -18t-139.5 -57l-31 76q81 46 162.5 68.5t153.5 22.5q56 0 104 -14t80.5 -42t47 -69.5t2.5 -96.5l-139 -653q39 20 76 44t70 52q98 81 166 187t94 228q25 121 2 228t-85.5 186.5t-159.5 126t-218 46.5q-82 0 -161.5 -21t-153 -59t-138.5 -92t-117 -119 t-89 -140t-54 -156q-26 -122 -2.5 -228.5zM641 409q-14 -69 17 -102t117 -33q49 0 116.5 14.5t152.5 46.5l39 185q-70 23 -129.5 33.5t-106.5 10.5q-46 0 -80.5 -8t-59 -26.5t-41 -48t-25.5 -72.5z" />
<glyph unicode="A" horiz-adv-x="1249" d="M70 0l733 1161h150l241 -1161h-105l-59 282h-678l-177 -282h-105zM414 379h596l-147 712z" />
<glyph unicode="B" horiz-adv-x="1239" d="M158 1l247 1162h443q62 0 113.5 -1t94.5 -6q64 -8 105 -29.5t62 -58.5q21 -38 23 -90v-12q0 -48 -13 -110v-1q-15 -72 -44.5 -125.5t-83.5 -88.5q35 -16 55 -42q22 -26 30 -62q6 -27 5 -58v-23q-3 -45 -14 -97v-1q-19 -89 -47 -150t-65.5 -101t-85.5 -62t-107.5 -32 t-131 -11.5t-156.5 -1.5zM274 97l567 7q53 5 91.5 16.5t67 38.5t48.5 74t36 124l1 1v1q12 59 12 99q0 18 -2 31q-8 45 -50 65t-123 22.5t-209 2.5h-336zM397 676l426 -1q86 0 139 9.5t88 26.5q15 7 27.5 17.5t23 27t19.5 40.5t16 59h1l-1 1q12 59 12 97v21q-4 42 -39 63 t-103 26t-178 5h-347z" />
<glyph unicode="C" horiz-adv-x="1129" d="M181 308v1q4 40 10 88q5 42 14 97t23 118q13 63 31 130.5t43 133.5q26 73 79.5 132.5t128 101.5t166.5 64.5t196 22.5q95 0 198 -20t214 -64l-52 -91q-105 42 -200.5 60t-180.5 18q-92 0 -168 -18.5t-134 -51t-97 -76t-58 -92.5v-1q-23 -61 -40 -125t-30 -124 q-11 -53 -19 -100.5t-13 -85.5t-8 -64t-4 -36l-1 -5v-13q-1 -42 17 -80q20 -44 65 -76t113 -50t160 -18q86 0 190 18.5t225 59.5l14 -91q-130 -44 -241.5 -64t-207.5 -20q-104 0 -186.5 22.5t-139 64.5t-84.5 102q-24 49 -24 107q0 12 1 25z" />
<glyph unicode="D" horiz-adv-x="1183" d="M127 28l3 8l237 1118q247 24 413 24q131 0 222.5 -17t147.5 -53q57 -36 80 -94q18 -46 19 -106q0 -16 -2 -33q-2 -66 -12.5 -133.5t-24.5 -130.5q-13 -63 -27.5 -118t-27 -96t-20.5 -64.5t-8 -24.5v-1q-30 -85 -79 -143t-122 -93.5t-171 -51t-225 -15.5q-85 0 -184 6 t-219 18zM243 116q178 -15 308 -15q123 0 206.5 13t138 40t86.5 68.5t53 98.5l7 22q4 11 8.5 26.5t11.5 35.5q11 40 24.5 93t26.5 113t22.5 124t14.5 126q1 11 1 21q0 38 -9 70q-11 41 -51 69.5t-116.5 44t-205.5 15.5q-134 0 -324 -15z" />
<glyph unicode="E" horiz-adv-x="1083" d="M123 0l247 1163h846l-21 -96h-748l-93 -438h682l-20 -96h-682l-93 -437h748l-20 -96h-846z" />
<glyph unicode="F" horiz-adv-x="1083" d="M123 0l247 1163h843l-21 -96h-747l-93 -438h684l-20 -96h-684l-113 -533h-96z" />
<glyph unicode="G" horiz-adv-x="1178" d="M186 297q0 1 2.5 25t7.5 65t14 96t22 118q14 63 32.5 130.5t42.5 134.5q27 75 81 134t128.5 100.5t166.5 64t194 23.5q96 -1 199.5 -21t213.5 -64l-52 -90q-104 41 -200.5 59t-181.5 18q-91 0 -167 -18t-134 -50t-97.5 -75.5t-56.5 -94.5q-24 -62 -41.5 -126t-30.5 -125 q-11 -53 -19 -100.5t-13.5 -85.5t-8 -64t-2.5 -35v-5q-1 -10 -1 -19q0 -39 16 -74q20 -43 64 -75t113 -51t162 -19q73 0 160 14t186 43l68 317h98l-83 -386l-1 -1q-128 -44 -240.5 -64t-208.5 -20q-103 0 -186 22.5t-140 64t-85 101.5q-23 48 -23 107q0 13 1 26z" />
<glyph unicode="H" horiz-adv-x="1201" d="M123 0l246 1161h97l-113 -532h762l113 532h96l-246 -1161h-96l113 532h-762l-113 -532h-97z" />
<glyph unicode="I" horiz-adv-x="435" d="M169 0l246 1161h97l-246 -1161h-97z" />
<glyph unicode="J" horiz-adv-x="962" d="M84 27l37 94q118 -22 209.5 -37t163.5 -15q74 0 127.5 13.5t91.5 47.5t64 90.5t44 142.5l149 702h-305l21 98h400l-1 -2h1l-169 -798q-23 -108 -59 -181.5t-88.5 -118.5t-123.5 -65t-164 -20q-80 0 -177 12.5t-221 36.5z" />
<glyph unicode="K" horiz-adv-x="1169" d="M123 0l246 1160h97l-123 -579q91 42 173 69.5t156 41.5v1q2 0 4 0.5t4 0.5q115 18 200 55t145 95t98 136.5t59 177.5v4h96v-4q-15 -72 -41 -139.5t-63.5 -126.5t-88.5 -109.5t-117 -89.5q32 -9 59.5 -22.5t49.5 -33.5q42 -37 58 -89q9 -29 9 -60q0 -26 -6 -53l-92 -435 h-97l92 435q3 16 3 31q0 20 -6 38q-10 32 -37 57t-74 39t-114 14q-90 0 -214 -32.5t-279 -110.5l-100 -471h-97z" />
<glyph unicode="L" horiz-adv-x="1066" d="M123 0l247 1164h96l-227 -1066h744l-20 -98h-840z" />
<glyph unicode="M" horiz-adv-x="1317" d="M123 0l247 1164h96l331 -507l548 507h95l-247 -1164h-95l215 1015l-547 -506l-332 506l-215 -1015h-96z" />
<glyph unicode="N" horiz-adv-x="1200" d="M123 0l247 1164h95l570 -890l189 890h4h96l-247 -1164h-100l26 125l-570 890l-215 -1015h-95z" />
<glyph unicode="O" horiz-adv-x="1232" d="M179 300l2 24t7.5 65t14 96.5t22.5 118.5t32 130.5t43 135.5q27 74 80.5 133.5t128 101t165.5 63.5t193 22q106 0 188.5 -23.5t138.5 -65.5q54 -42 82 -101q24 -52 24 -112v-18q-4 -68 -14 -135.5t-24 -130.5t-28.5 -118.5t-26.5 -96.5t-20 -65l-8 -24 q-25 -73 -78.5 -132.5t-128 -101.5t-167 -64.5t-195.5 -22.5q-100 0 -182 22t-139 63t-87 101q-25 50 -24 110q0 12 1 25zM276 313v-12q0 -41 17 -79q20 -43 64 -76t112 -52t161 -19q92 0 168 19t134 51.5t97 75.5t57 92l2 4q3 10 10.5 34.5t18 60.5t22.5 81.5t23 96.5 q14 63 25 131t14 134v12q-1 45 -19 83q-22 44 -66.5 75.5t-112 49.5t-156.5 18q-90 0 -166 -19t-134.5 -51t-98 -75.5t-57.5 -92.5q-23 -63 -40 -127t-30 -124q-11 -53 -19 -101t-13 -86t-8 -64t-4 -36z" />
<glyph unicode="P" horiz-adv-x="1112" d="M123 0l247 1163h379q84 0 162.5 -1t141 -15.5t103 -48t49.5 -97.5q6 -27 6 -59q1 -14 -1 -29q-4 -49 -17 -109v-1q-17 -82 -44 -138.5t-63 -93t-80 -56t-96 -28t-111.5 -10t-125.5 -1.5h-352l-101 -476h-97zM341 573h352q62 0 111.5 1t88.5 6q40 5 71.5 14t55.5 31.5 t42.5 64.5t33.5 113v1l1 1q17 80 17 131v12q-2 52 -41.5 78.5t-121.5 33t-223 6.5h-282z" />
<glyph unicode="Q" horiz-adv-x="1235" d="M179 297v1l2.5 24t8 65t14.5 96.5t22 118.5q14 63 31.5 131t42.5 134q27 73 81 132.5t128 101.5t165.5 64.5t194.5 22.5q102 0 183.5 -22.5t138.5 -64t86 -101.5q25 -52 25 -115v-18q-5 -66 -15 -134t-24 -131q-13 -63 -27.5 -118.5t-26.5 -96.5t-20 -65l-8 -24v-1 q-25 -69 -73 -125t-115.5 -97t-151.5 -65.5t-180 -30.5q-6 -28 -10 -57.5t6 -54t41 -40t94 -15.5q32 0 72.5 5t91.5 16l2 -95q-57 -12 -102.5 -17.5t-84.5 -5.5q-65 0 -106.5 14.5t-65.5 37.5t-34 51.5t-11.5 58t2.5 56.5t8 46q-95 6 -169 30.5t-123.5 66t-73.5 97.5 q-20 46 -20 101q0 11 1 23zM277 310q-1 -8 -1 -16q0 -39 17 -75q20 -43 64.5 -75t113 -51t161.5 -20q93 1 169 19.5t133.5 50.5t96.5 74.5t57 92.5l2 6q3 10 11.5 36t19 64t22.5 85.5t23 100.5q13 60 23.5 124.5t14.5 125.5v9q0 45 -19 85q-21 43 -65 75.5t-112 51 t-160 18.5t-168 -18.5t-133.5 -51t-96.5 -76t-57 -93.5q-23 -61 -40.5 -125.5t-30.5 -124.5q-11 -53 -19 -100.5t-13.5 -85.5t-8 -64t-3.5 -36z" />
<glyph unicode="R" horiz-adv-x="1113" d="M122 -1l248 1164h371q73 0 133.5 -2t111.5 -8q75 -8 122 -32q48 -25 71 -67q24 -43 24 -108q0 -61 -18 -143v-1q-31 -147 -97.5 -222.5t-179.5 -90.5q0 -24 8 -63t17 -85q17 -78 43 -168t63 -175h-114q-28 73 -49 147.5t-35 139.5t-22.5 115.5t-11.5 76.5q-66 -3 -143 -3 h-344l-101 -475h-97zM341 572h344q125 0 200.5 8t111.5 34q25 18 50 61.5t43 126.5v2q16 74 16 122q0 13 -2 25q-6 53 -46.5 78t-122.5 30.5t-215 5.5h-274z" />
<glyph unicode="S" horiz-adv-x="1071" d="M113 96l58 87q84 -42 186 -68t203 -26q67 0 127.5 11.5t109.5 37.5t83.5 69t51.5 105q4 23 4 42q0 21 -4 38q-10 33 -31.5 56t-53 37.5t-67 24t-72 16.5t-69.5 14q-20 5 -59 11t-84.5 18.5t-90.5 33t-78.5 55t-48.5 85.5q-7 25 -7 54q0 32 8 69l1 2q23 93 77 154.5 t126 98.5t154.5 52.5t161.5 15.5q109 0 206.5 -21.5t168.5 -55.5l-59 -88q-30 15 -68 27.5t-81.5 21.5t-91 14.5t-95.5 5.5q-76 0 -143.5 -13.5t-120.5 -41.5t-89 -71t-50 -102q-5 -24 -5 -44q0 -21 5 -37q10 -34 33.5 -56.5t57 -37t70.5 -24.5t74.5 -17t69.5 -14 q24 -6 62.5 -12t82 -18.5t86 -33t73 -54.5t44.5 -84q7 -25 7 -55t-7 -66l-1 -4v-1h-1q-23 -89 -72.5 -149.5t-115.5 -97.5t-142.5 -53t-151.5 -16q-115 0 -228 28.5t-204 76.5z" />
<glyph unicode="T" horiz-adv-x="998" d="M257 1067l21 97h934l-21 -97h-417l-226 -1067h-97l226 1067h-420z" />
<glyph unicode="U" horiz-adv-x="1201" d="M194 279q2 75 18 168.5t40 204.5l108 509h97l-108 -509q-20 -96 -35 -174t-20 -139q-3 -30 -3 -57q0 -36 5 -65q8 -51 42 -83t100 -47t175 -15h3q93 0 160.5 11.5t116 38t82.5 70.5t59.5 108.5t46.5 151.5t45 201l108 508h97l-108 -508q-20 -97 -39.5 -177.5 t-41.5 -148.5q-33 -96 -80 -163t-113 -109.5t-153 -61.5t-201 -19h-3q-118 0 -196 19.5t-124 57.5q-44 37 -62 95q-16 53 -17 121q1 6 1 12z" />
<glyph unicode="V" horiz-adv-x="1182" d="M265 1163h105l234 -1093l699 1093h105l-743 -1163h-151z" />
<glyph unicode="W" horiz-adv-x="1394" d="M232 0l127 1163h97l-112 -1026l478 490l265 -483l322 1019h98l-368 -1163h-94l-257 467l-455 -467h-101z" />
<glyph unicode="X" horiz-adv-x="1218" d="M74 0l574 582l-327 581h123l297 -533l526 533h123l-574 -581l327 -582h-123l-299 533l-524 -533h-123z" />
<glyph unicode="Y" horiz-adv-x="1185" d="M311 1163h122l298 -533l526 533h123l-618 -626l-114 -537h-97l113 533z" />
<glyph unicode="Z" horiz-adv-x="1157" d="M126 28q0 3 -1 6q0 28 5 74l1022 958h-1h-817l20 96h919q7 0 7 -26t-5 -73l-1029 -967h826l-20 -96h-919q-7 0 -7 28z" />
<glyph unicode="[" horiz-adv-x="462" d="M94 -191l328 1545h294l-21 -98h-197l-286 -1350h197l-21 -97h-294z" />
<glyph unicode="\" horiz-adv-x="739" d="M231 1338h106l357 -1516l-3 -2h-103z" />
<glyph unicode="]" horiz-adv-x="476" d="M6 -192l21 98h197l286 1350h-197l21 97h294l-328 -1545h-294z" />
<glyph unicode="^" horiz-adv-x="1005" d="M263 809l431 436h137l244 -436h-122l-206 366l-362 -366h-122z" />
<glyph unicode="_" horiz-adv-x="1100" d="M15 -119l21 97h1016l-21 -97h-1016z" />
<glyph unicode="`" horiz-adv-x="455" d="M357 1252h134l79 -391h-104z" />
<glyph unicode="a" horiz-adv-x="1019" d="M162 166q-6 25 -6 52q0 33 8 71q18 86 56.5 148t93 102t122.5 59t146 19q73 0 156.5 -16t178.5 -46l28 128q4 19 4 37q0 22 -6 42q-11 36 -40.5 61.5t-76 39.5t-109.5 14q-85 0 -181.5 -25t-196.5 -81l-34 80q110 62 219.5 92t206.5 30q71 0 134 -18t107 -54 q44 -37 64 -91q11 -31 11 -67q0 -28 -6 -60l-145 -683h-75q-5 0 -5.5 20.5t2.5 58.5q-113 -42 -209.5 -62t-175.5 -20q-74 0 -131 19.5t-92.5 57.5t-47.5 92zM256 204q7 -36 30 -59q23 -25 64 -39t103 -14q72 0 168.5 21.5t216.5 68.5l58 273q-199 67 -335 67 q-131 0 -203.5 -55t-97.5 -174q-7 -32 -7 -58q0 -17 3 -31z" />
<glyph unicode="b" horiz-adv-x="1022" d="M123 0l275 1294h96l-87 -407q91 43 173 63t154 20q75 0 136.5 -20t104.5 -55t65 -83q20 -42 20 -90v-13q-3 -50 -10 -101t-19 -108q-11 -50 -22 -93.5t-21 -75.5t-16 -51l-7 -19v-1q-24 -69 -68.5 -118.5t-101 -80.5t-121 -45.5t-128.5 -14.5q-81 0 -161.5 20t-151.5 57 q-12 -37 -21 -57.5t-14 -20.5h-75zM258 185q66 -42 147 -65.5t161 -23.5q54 0 102.5 10.5t88 32t69.5 55t48 79.5l20 66q8 31 19 72t22 89q10 47 17.5 96.5t10.5 97.5v8q1 30 -13 58q-16 32 -48 57.5t-79.5 41t-109.5 15.5q-68 0 -151 -22.5t-178 -74.5z" />
<glyph unicode="c" horiz-adv-x="940" d="M182 259l2 19q1 19 5.5 51.5t11 75.5t17.5 93t25.5 103t33.5 106q22 60 65.5 108t103.5 81.5t133.5 52t155.5 18.5q76 0 158 -16t169 -51l-52 -89q-81 32 -155 46t-140 14q-71 0 -129 -14t-102 -38.5t-73 -57t-42 -68.5q-18 -48 -31 -97.5t-24 -97.5q-15 -71 -22.5 -127 t-10.5 -82q-1 -11 -2 -21q0 -28 10 -54q13 -36 45.5 -62t85.5 -41.5t130 -15.5q66 0 146 14t174 46l15 -89q-102 -35 -191 -51t-165 -16q-81 0 -147.5 18t-112 52t-69.5 82q-19 40 -19 87q0 10 1 21z" />
<glyph unicode="d" horiz-adv-x="1025" d="M170 260l2 19q1 19 5.5 51.5t11 75.5t17.5 93t25 103t34 106q20 55 62.5 103t101 83t128.5 55t145 20q72 0 146 -19.5t146 -63.5l86 407h96l-274 -1293h-75q-5 0 -6 20t3 57q-87 -37 -175.5 -57t-169.5 -20q-65 0 -123.5 14.5t-101.5 45.5q-42 32 -66 82q-19 39 -19 91 q0 13 1 27zM268 290v-16q0 -90 52 -132q58 -46 179 -46q81 0 171 23t175 66l125 591q-73 53 -146.5 75t-141.5 22q-63 0 -117.5 -15.5t-97 -41t-71 -57.5t-40.5 -65q-18 -48 -31 -97.5t-23 -97.5q-15 -71 -23 -127t-11 -82z" />
<glyph unicode="e" horiz-adv-x="1020" d="M181 260l2 19t6 51.5t11 75.5t18 93t24.5 103t33.5 106q21 58 63 105.5t99.5 80.5t128 51.5t148.5 20.5v1q1 0 1.5 -0.5t2.5 -0.5t2.5 0.5t2.5 0.5v-1q77 -2 139 -20.5t105 -51.5q43 -32 65 -80q19 -42 19 -92v-14q-3 -51 -10.5 -101.5t-18.5 -98.5l-20 -96h-705 q-8 -42 -12 -73.5t-6 -48.5l-2 -22q0 -26 10 -52q12 -36 44 -62.5t85.5 -42.5t130.5 -16q66 0 147 14.5t175 46.5l14 -90q-102 -35 -190.5 -50.5t-165.5 -15.5q-82 0 -148 18t-112 52t-69 82q-19 39 -19 87q0 10 1 21zM317 508h608q9 45 18 92.5t12 93.5v8q0 31 -13 59 q-15 31 -46.5 55t-81 38t-116.5 16q-69 -2 -124 -16.5t-96.5 -38.5t-69 -55t-40.5 -66q-17 -46 -29 -93.5t-22 -92.5z" />
<glyph unicode="f" horiz-adv-x="551" d="M102 -351l256 1204h-122l20 96h122l9 43q7 31 17.5 65.5t26.5 68t39.5 64t58.5 54t82 37.5t110 14q53 0 112 -10l-36 -95q-28 5 -52 7t-45 2q-36 0 -62 -5t-45 -13.5t-32.5 -20t-22.5 -23.5q-21 -27 -33.5 -65t-21.5 -80l-9 -43h244l-20 -96h-244l-236 -1111 q-14 -44 -24.5 -68t-16.5 -24z" />
<glyph unicode="g" horiz-adv-x="1026" d="M171 259q2 53 10.5 106t19.5 103q10 49 21.5 92.5t21.5 76t16 51.5l6 19q24 69 68 118.5t100 81t121 46t130 14.5q82 0 162 -20t151 -57q12 36 21 56.5t14 20.5h75l-205 -967q-7 -31 -18.5 -69t-32 -76.5t-52 -75t-77 -64.5t-108 -45t-145.5 -17q-61 0 -132 10t-157 33 l42 93q81 -22 147.5 -31.5t119.5 -9.5q95 0 153.5 24.5t92 62t48 81.5t23.5 84l17 81q-91 -43 -173 -63t-154 -20q-75 0 -136.5 19.5t-104.5 54.5t-66 82q-19 42 -19 92v13zM269 274q-1 -6 -1 -11q0 -27 13 -55q15 -32 46.5 -57.5t79 -41t110.5 -15.5q69 0 151.5 22.5 t178.5 74.5l126 592q-66 42 -147 65.5t-161 23.5q-55 0 -104 -11t-88.5 -32.5t-69 -55t-45.5 -78.5q-12 -40 -21.5 -71.5t-16 -58.5t-12 -50t-10.5 -47q-10 -48 -18 -97t-11 -97z" />
<glyph unicode="h" horiz-adv-x="1047" d="M123 0l274 1293h95l-86 -407q91 43 173 63t154 20q73 0 135 -19.5t106 -54.5t68 -83q20 -41 19 -88v-16q-3 -50 -11 -101t-20 -108l-106 -499h-96l106 499q10 48 17.5 97t10.5 97v8q0 29 -14 57q-16 32 -47 58t-78.5 41.5t-109.5 15.5q-69 0 -151.5 -22.5t-179.5 -74.5 l-164 -776h-95z" />
<glyph unicode="i" horiz-adv-x="387" d="M145 0h96l186 876q5 40 5 63q0 28 -7 28h-75zM361 1112q6 27 29.5 46.5t51.5 19.5q26 0 42 -20q11 -14 11 -32q0 -7 -1 -14q-6 -28 -29.5 -47.5t-50.5 -19.5q-28 -1 -44 19q-11 14 -11 33q0 7 2 15z" />
<glyph unicode="j" horiz-adv-x="389" d="M-151 -342q35 -7 71 -7q83 0 139.5 32.5t92.5 81t56 106t31 108.5l191 897q4 39 4 62v6q-1 23 -6 23h-78l-210 -988q-10 -45 -22.5 -86t-34 -72.5t-55.5 -50.5t-87 -20q-13 0 -26.5 1.5t-30.5 3.5zM362 1112q6 27 29.5 46.5t50.5 19.5q28 0 44 -20q11 -14 11 -32 q0 -6 -2 -14q-6 -28 -29.5 -47.5t-51.5 -19.5q-27 0 -42 19q-12 15 -12 33q0 7 2 15z" />
<glyph unicode="k" horiz-adv-x="1055" d="M123 0l274 1293h95l-150 -708q99 48 185 74t161 36q79 7 138 23t102 47.5t71 81.5t44 126h95q-22 -105 -70 -181.5t-136 -124.5q24 -11 45 -29q36 -32 50 -77q8 -25 8 -53q0 -22 -5 -46l-98 -462h-95l98 462q5 29 -2.5 55t-30 45.5t-60.5 31t-93 11.5q-78 0 -187 -30 t-244 -100l-100 -475h-95z" />
<glyph unicode="l" horiz-adv-x="386" d="M145 0l275 1294h75q6 0 6 -24t-5 -68l-255 -1202h-96z" />
<glyph unicode="m" horiz-adv-x="1430" d="M123 0l205 967h75q6 0 6 -24t-5 -68v-2q105 50 183.5 73.5t138.5 23.5q35 0 67 -8.5t57.5 -24t42 -37t21.5 -48.5q122 62 211 90.5t155 28.5q26 0 53 -5t51 -14t42 -22.5t27 -31.5q20 -36 19 -79q0 -39 -9 -82l-156 -737h-95l156 737q4 21 4 39q0 40 -20 64 q-30 36 -92 36q-47 0 -133 -28t-216 -96q0 -1 -1 -6t-5.5 -26.5t-14 -67t-27 -129t-45 -211t-66.5 -313.5h-96l157 738q4 21 4 39q0 38 -20 63q-30 36 -92 36q-45 0 -125 -25t-199 -86l-162 -764h-96z" />
<glyph unicode="n" horiz-adv-x="1029" d="M123 0l205 967h76q5 0 5 -23.5t-5 -68.5l-2 -10q125 60 229.5 88t187.5 28q65 0 115.5 -17t83 -48.5t44.5 -75.5q6 -22 7 -48q0 -24 -6 -50l-157 -742h-96l157 742q6 30 0 56t-26 45.5t-55 30.5t-87 11q-74 0 -180 -30t-240 -100l-160 -755h-96z" />
<glyph unicode="o" horiz-adv-x="1053" d="M182 263q1 10 4 33t7.5 56t11 74t15.5 86q11 51 26.5 107t34.5 110l4 5q21 58 62.5 104.5t98 80t126 53.5t146.5 25q83 0 151 -17.5t116 -51.5t73 -82q22 -43 23 -97q0 -6 -1 -13v-6q-1 -10 -3.5 -33.5t-7 -56.5t-11.5 -74t-16 -86q-11 -51 -26.5 -108.5t-35.5 -108.5 l-2 -5q-23 -58 -67 -106.5t-103.5 -83t-132 -54t-152.5 -19.5h-18q-76 4 -137 23.5t-103.5 53.5t-64.5 80q-18 39 -18 86q0 9 1 18zM286 294q-1 -7 -1 -15q1 -29 11 -57q12 -34 42.5 -61.5t79.5 -45.5t119 -22q3 1 7 1q69 2 125.5 17t99 39t71.5 56.5t44 69.5 q18 49 32.5 102.5t25.5 101.5q7 37 13 70.5t10 62t7 50.5t5 35q1 8 1 15q0 31 -10 59q-12 35 -43.5 62t-82 44t-123.5 20q-2 -1 -0.5 -0.5t-0.5 0.5q-140 -5 -225.5 -56.5t-114.5 -125.5q-17 -48 -32 -102t-26 -102q-8 -37 -14 -70.5t-10 -62t-6.5 -50.5t-3.5 -35z" />
<glyph unicode="p" horiz-adv-x="1025" d="M48 -351l280 1318h76q5 0 5.5 -20.5t-3.5 -56.5q86 37 174.5 57t170.5 20q65 0 123.5 -15t102 -46.5t66.5 -80.5q18 -39 18 -90q0 -14 -1 -28l-2 -19t-6 -51.5t-11.5 -76t-17.5 -92.5q-11 -50 -25.5 -103t-32.5 -106q-21 -56 -64 -104t-101.5 -83t-128.5 -54.5 t-144 -19.5q-72 0 -145.5 20t-145.5 63l-92 -432h-96zM259 191q73 -52 146 -74.5t142 -22.5q63 0 117 15.5t96.5 41t72 58t41.5 65.5q17 48 30.5 97.5t23.5 96.5q15 71 22 127t10 82q2 16 2 30q0 32 -9 57q-13 36 -43 60t-75.5 36t-103.5 12q-80 0 -170.5 -23.5 t-175.5 -65.5z" />
<glyph unicode="q" horiz-adv-x="1025" d="M170 259q3 53 11 106t19 103q10 49 21.5 92.5t21.5 76t16 51.5l6 19q23 69 67 118t100.5 80.5t121.5 46.5t130 15q82 0 162 -20t151 -57q11 36 20 56.5t14 20.5h76l-280 -1318h-96l92 432q-91 -43 -173 -63t-154 -20q-74 0 -135.5 19.5t-105 54.5t-65.5 83q-20 42 -20 91 v13zM267 274v-8q0 -29 13 -58q15 -32 46.5 -57.5t79 -41t110.5 -15.5q69 0 151.5 22.5t178.5 74.5l126 592q-66 42 -147 65.5t-161 23.5q-118 0 -200 -47.5t-113 -147.5q-8 -26 -24.5 -82t-31.5 -127q-10 -47 -18 -96.5t-10 -97.5z" />
<glyph unicode="r" horiz-adv-x="586" d="M123 0l205 967h75q6 0 6 -23t-5 -65q94 51 174.5 75t149.5 24l-17 -83q-3 -8 -36 -15q-58 -5 -131 -32t-163 -83l-162 -765h-96z" />
<glyph unicode="s" horiz-adv-x="870" d="M88 77l58 87q69 -35 151.5 -56t162.5 -21q115 0 189 41.5t99 131.5q3 17 3 32q0 32 -13 52q-19 30 -54.5 47t-80.5 26t-87 19q-15 3 -46.5 8t-68.5 14.5t-75 27t-66 46.5t-40 72q-6 21 -7 46q0 26 7 58v2q20 79 66 130.5t106 82t128 42.5t131 13q88 -1 168 -18t138 -45 l-58 -88q-47 23 -119 39t-149 16q-60 0 -112.5 -10t-94 -31.5t-69.5 -54.5t-39 -79q-8 -36 0 -62t27 -44t45.5 -29.5t55.5 -19t58.5 -12.5t54.5 -10q17 -4 48.5 -9t67.5 -15t72 -27.5t62 -46.5q25 -28 37 -70q5 -20 6 -43q0 -27 -7 -59h1v-1q-1 -1 -1 -2l-1 -1 q-19 -75 -60.5 -125.5t-96.5 -81t-118.5 -44t-126.5 -13.5q-93 0 -184.5 23t-167.5 62z" />
<glyph unicode="t" horiz-adv-x="648" d="M236 178q0 3 -1 6q0 30 5 60q5 33 11 59l117 549h-123l20 96h123l73 345h95l-73 -345h244l-20 -96h-244l-117 -549q-8 -37 -14 -74q-2 -14 -3 -28q1 -21 7 -39q10 -30 41 -48t98 -18q21 0 45.5 2t55.5 7l-5 -95q-33 -5 -61.5 -7.5t-54.5 -2.5q-66 0 -108.5 15t-67 40 t-34 57t-9.5 66z" />
<glyph unicode="u" horiz-adv-x="1029" d="M170 225l158 742h96l-158 -742q-6 -30 0.5 -56.5t27 -45.5t55.5 -30t86 -11q75 0 180.5 30t240.5 100l160 755h95l-205 -967h-75q-6 0 -6 29q0 23 5 63l2 10q-126 -60 -230 -87.5t-187 -28.5q-65 1 -116 18t-83 48t-44 75q-7 23 -7 50q0 23 5 48z" />
<glyph unicode="v" horiz-adv-x="967" d="M220 969h85q11 0 34 -70l166 -785l545 855h103l-623 -969h-104z" />
<glyph unicode="w" horiz-adv-x="1318" d="M171 229l157 737h95l-157 -737q-5 -26 5.5 -52t34.5 -47t60 -34.5t81 -13.5q48 0 97 17.5t100 59.5l115 539h95l-115 -539q20 -20 38.5 -34.5t38 -24t41.5 -14t48 -4.5q45 0 86 13t74 34t54.5 47.5t27.5 52.5l157 737h96l-157 -737q-11 -54 -47 -98.5t-86 -76.5t-109 -50 t-116 -18q-59 0 -114 20.5t-97 65.5q-62 -45 -125.5 -65.5t-121.5 -20.5q-57 0 -108.5 18t-88 50t-53.5 76q-10 27 -10 58q0 20 4 41z" />
<glyph unicode="x" horiz-adv-x="1058" d="M59 0l515 485l-309 485h126l261 -411l437 411h126l-515 -485l309 -485h-125l-263 411l-437 -411h-125z" />
<glyph unicode="y" horiz-adv-x="1039" d="M185 259q2 53 10 106t19 103l107 500h95l-106 -500q-10 -47 -18 -96.5t-10 -97.5v-1v-8q0 -30 13 -58q15 -32 47 -57t79.5 -40.5t109.5 -15.5q68 0 151 22.5t179 74.5l165 777h96l-206 -968q-7 -31 -18.5 -68.5t-32 -76t-52 -74.5t-77 -64.5t-108 -45.5t-145.5 -17 q-61 0 -132.5 10t-157.5 33l44 92q81 -21 146.5 -30t119.5 -9q91 0 148.5 22.5t91.5 57t50 76.5t25 81q0 1 1 4t3 12.5t5.5 27.5t10.5 50q-91 -43 -173 -62.5t-154 -19.5q-75 0 -136.5 19t-105 53.5t-65.5 82.5q-19 42 -19 91v14z" />
<glyph unicode="z" horiz-adv-x="974" d="M115 29q0 23 5 63l2 10l821 773h-657l21 95h757q6 0 6 -23.5t-5 -68.5l-2 -8l-822 -774h658l-20 -96h-758q-6 0 -6 29z" />
<glyph unicode="{" horiz-adv-x="558" d="M160 533l20 97q69 0 97 16q11 5 21 13t18.5 23t16.5 37.5t15 56.5l61 287q19 91 60.5 147.5t95.5 87.5t116 42t122 12l-21 -98q-50 0 -94.5 -6t-80.5 -25.5t-62 -57.5t-40 -102l-61 -287q-14 -67 -37.5 -115t-65.5 -80q27 -33 31 -80.5t-10 -113.5l-61 -288 q-13 -60 -4 -97.5t35 -58.5t68 -28.5t96 -7.5l-21 -97q-65 0 -122.5 12.5t-96.5 45t-54.5 88.5t3.5 143l61 288q12 58 6 88q-1 16 -6.5 27t-18 18t-34 10t-53.5 3z" />
<glyph unicode="|" horiz-adv-x="367" d="M96 -181l324 1524h97l-324 -1524h-97z" />
<glyph unicode="}" horiz-adv-x="555" d="M-1 -190l20 98q50 0 94.5 6t80.5 25.5t62 57.5t40 102l61 287q14 67 37.5 115t65.5 80q-27 33 -31 80.5t10 113.5l61 288q13 60 4 97.5t-35 58.5t-68 28.5t-96 7.5l21 97q65 0 122.5 -12.5t96.5 -45t54.5 -88.5t-3.5 -143l-61 -288q-12 -58 -6 -88q1 -16 6.5 -27t18 -18 t34 -10t53.5 -3l-20 -97q-69 0 -97 -16q-11 -5 -21 -13t-18.5 -23t-16.5 -37.5t-15 -56.5l-61 -287q-20 -91 -61 -147.5t-95 -87.5t-115.5 -42t-121.5 -12z" />
<glyph unicode="~" horiz-adv-x="1085" d="M223 526q11 24 32 52.5t52.5 52.5t73.5 40.5t93 16.5t107.5 -21t120.5 -67q57 -38 100 -54t75 -16q27 0 48.5 9t37 21.5t25.5 26.5t15 24l102 -28q-12 -25 -34 -53.5t-53.5 -53t-72.5 -41t-91 -16.5q-53 0 -110.5 21t-121.5 68q-55 40 -98.5 54.5t-73.5 14.5 q-29 0 -50 -8t-36.5 -20t-25.5 -26t-16 -25z" />
<glyph unicode="&#xad;" horiz-adv-x="1053" d="M222 533l20 96h825l-20 -96h-825z" />
<glyph unicode="&#xde;" horiz-adv-x="1604" d="M113 0l201 947q115 42 215 60.5t185 18.5q92 0 165.5 -21.5t122 -60t69 -92.5t6.5 -119l-97 -456q-8 -39 0.5 -74.5t31.5 -61.5t58 -41.5t80 -15.5h52q45 0 87 15.5t76 42t57.5 61.5t31.5 74l158 740h95l-158 -740q-13 -61 -48.5 -113.5t-85.5 -91.5t-110.5 -61.5 t-122.5 -22.5h-52q-62 0 -113 22.5t-85 61.5t-47.5 92t-0.5 113l98 456q7 36 -6.5 71.5t-49 63.5t-93.5 45.5t-140 17.5q-127 0 -299 -52l-186 -879h-95zM822 -125l96 36q13 -52 58 -86.5t112 -34.5h52q34 0 66.5 9.5t61.5 25.5t53 38t40 48l81 -36q-26 -40 -61.5 -73 t-77.5 -57t-88.5 -37t-94.5 -13h-52q-48 0 -89.5 13t-73.5 37t-53 57t-30 73z" />
<glyph unicode="&#x152;" d="M-341 1375l20 95h144l-29 -138h461l-21 -95h-555l18 84q7 25 13 39.5t9 15.5z" />
<glyph unicode="&#x153;" d="M-307 1675l20 95h144l-30 -138h361l-20 -95h-455l18 84q7 26 13 40.5t9 14.5z" />
<glyph unicode="&#x178;" d="M-236 1472l37 171l526 44l-12 -96l-438 -37l-5 -23q-8 -28 -14 -43.5t-10 -15.5h-84z" />
<glyph unicode="&#x2c6;" d="M-663.5 1235.5q-0.5 19.5 3.5 54.5l4 18q7 36 27 70.5t47 63t59.5 48.5t64.5 28l102 -42l115 45q7 -3 9.5 -4.5t4.5 -2.5q58 -26 87.5 -80.5t14.5 -125.5q45 19 70.5 49t33.5 64l20 96h16h67l-20 -96q-15 -69 -68.5 -122.5t-138.5 -82.5h-69q-5 0 -6 18.5t3 52.5l5 21 q8 35 -5 66.5t-44 50.5l-115 -45l-96 45q-82 -43 -97 -117l-20 -92h-69q-5 0 -5.5 19.5z" />
<glyph unicode="&#x2dc;" d="M-525 1216l49 232h84q7 0 -1 -58l-17 -78l454 2l-21 -98h-548z" />
<glyph unicode="&#x2000;" horiz-adv-x="919" />
<glyph unicode="&#x2001;" horiz-adv-x="1838" />
<glyph unicode="&#x2002;" horiz-adv-x="919" />
<glyph unicode="&#x2003;" horiz-adv-x="1838" />
<glyph unicode="&#x2004;" horiz-adv-x="612" />
<glyph unicode="&#x2005;" horiz-adv-x="459" />
<glyph unicode="&#x2006;" horiz-adv-x="306" />
<glyph unicode="&#x2007;" horiz-adv-x="306" />
<glyph unicode="&#x2008;" horiz-adv-x="229" />
<glyph unicode="&#x2009;" horiz-adv-x="367" />
<glyph unicode="&#x200a;" horiz-adv-x="102" />
<glyph unicode="&#x2010;" horiz-adv-x="1053" d="M222 533l20 96h825l-20 -96h-825z" />
<glyph unicode="&#x2011;" horiz-adv-x="1053" d="M222 533l20 96h825l-20 -96h-825z" />
<glyph unicode="&#x2012;" horiz-adv-x="1053" d="M222 533l20 96h825l-20 -96h-825z" />
<glyph unicode="&#x2013;" horiz-adv-x="1055" d="M222 533l20 96h825l-20 -96h-825z" />
<glyph unicode="&#x2014;" horiz-adv-x="1292" d="M222 533l20 96h1055l-20 -96h-1055z" />
<glyph unicode="&#x2018;" horiz-adv-x="321" d="M296 886l67 364h105l-85 -364h-87z" />
<glyph unicode="&#x2019;" horiz-adv-x="319" d="M296 886l67 364h105l-85 -364h-87z" />
<glyph unicode="&#x201a;" d="M-641 1216l16 74q1 6 22 11t58 10h435q12 36 21.5 56t15.5 20h74l-35 -171h-607z" />
<glyph unicode="&#x201e;" d="M-641 1216l16 74q1 6 22 11t59 10h241q12 36 21.5 56t14.5 20h75l-16 -76h99q12 36 21.5 56t15.5 20h27h47l-35 -171h-608z" />
<glyph unicode="&#x2022;" horiz-adv-x="702" d="M291.5 505.5q-7.5 32.5 0.5 70.5q8 37 29.5 69.5t51.5 57t65.5 39t71.5 14.5q37 0 67 -14.5t49.5 -39t26.5 -57t-1 -69.5t-29 -69.5t-50.5 -57t-65.5 -39t-73 -14.5q-36 0 -66 14t-49.5 38.5t-27 57z" />
<glyph unicode="&#x2026;" horiz-adv-x="1317" d="M204 88q3 16 12.5 30.5t22.5 25t28.5 16.5t31.5 6q32 0 49.5 -23t10.5 -55q-3 -16 -12 -30.5t-21.5 -25t-28 -16.5t-31.5 -6q-32 0 -50.5 23t-11.5 55zM584 88q3 16 12.5 30.5t22.5 25t28.5 16.5t31.5 6q32 0 49.5 -23t10.5 -55q-3 -16 -12 -30.5t-21.5 -25t-28 -16.5 t-31.5 -6q-32 0 -50.5 23t-11.5 55zM964 88q3 16 12.5 30.5t22.5 25t28.5 16.5t31.5 6q32 0 49.5 -23t10.5 -55q-3 -16 -12 -30.5t-21.5 -25t-28 -16.5t-31.5 -6q-32 0 -50.5 23t-11.5 55z" />
<glyph unicode="&#x202f;" horiz-adv-x="367" />
<glyph unicode="&#x2039;" d="M49 1216l62 292h96l-62 -292h-96z" />
<glyph unicode="&#x203a;" d="M-60 1546l61 292h96l-62 -292h-95z" />
<glyph unicode="&#x205f;" horiz-adv-x="459" />
<glyph unicode="&#x20ac;" horiz-adv-x="915" d="M201 875q33 35 74.5 63t87 47.5t94.5 30t97 10.5h69q54 0 100.5 -13t84.5 -36q22 7 45.5 22t43 32t33 32.5t15.5 23.5h95q-7 -32 -27 -59t-46 -50q-19 -18 -40.5 -33t-44.5 -29q42 -49 58.5 -115t0.5 -141l-64 -298q-15 -73 -57.5 -137t-102 -112.5t-132 -78.5 t-148.5 -36l-102 -2h-2l-114 428h102l90 -333q67 0 128.5 21t111 58t84 86t46.5 106l64 298q12 55 -1 104.5t-46 86.5t-83 58.5t-113 21.5h-69q-83 0 -157 -36t-125 -94z" />
<glyph unicode="&#x2122;" d="M-323 1196q-6 29 1 62q7 32 25 61t44 50.5t57.5 34t64.5 12.5q32 0 58 -12.5t43 -34t23.5 -50.5t0.5 -61q-7 -33 -26 -62t-45 -50.5t-57.5 -33.5t-63.5 -12q-33 0 -59.5 12t-43 33.5t-22.5 50.5zM-232 1258q-6 -28 9.5 -48t43.5 -20t52.5 20t30.5 48q6 29 -10 48.5 t-44 19.5t-52 -19.5t-30 -48.5z" />
<glyph unicode="&#x25fc;" horiz-adv-x="970" d="M0 0v970h970v-970h-970z" />
</font>
</defs>
</svg>
