<?xml version="1.0" standalone="no"?>
<!DOCTYPE svg PUBLIC "-//W3C//DTD SVG 1.1//EN" "http://www.w3.org/Graphics/SVG/1.1/DTD/svg11.dtd" >
<svg xmlns="http://www.w3.org/2000/svg">
<metadata></metadata>
<defs>
<font id="superspace_bold_slantregular" horiz-adv-x="0" >
<font-face units-per-em="2048" ascent="1638" descent="-410" />
<missing-glyph horiz-adv-x="690" />
<glyph unicode="&#x2018;&#x2018;" horiz-adv-x="657" d="M-186 1300h187l84 -422h-169zM98 1300h188l83 -422h-170z" />
<glyph unicode="&#x2019;&#x2019;" horiz-adv-x="674" d="M-178 1300h187l83 -422h-169zM105 1300h189l83 -422h-170z" />
<glyph />
<glyph unicode="&#xd;" horiz-adv-x="579" />
<glyph unicode=" "  horiz-adv-x="690" />
<glyph unicode="&#x09;" horiz-adv-x="690" />
<glyph unicode="&#xa0;" horiz-adv-x="690" />
<glyph unicode="!" horiz-adv-x="429" d="M-161 1284h203l182 -929h-171zM52 133q-6 27 0 51t20 42t36 28.5t48 10.5q28 0 54.5 -10.5t48 -28.5t36.5 -42t21 -51t1 -50.5t-19 -41.5t-36 -28.5t-50 -10.5q-26 0 -52.5 10.5t-48.5 28.5t-37.5 41.5t-21.5 50.5z" />
<glyph unicode="&#x22;" horiz-adv-x="620" d="M-175 1224h187l84 -423h-169zM79 1224h188l83 -423h-170z" />
<glyph unicode="#" horiz-adv-x="1370" d="M-75 463h277q3 31 5 56l4 50t4.5 51.5t5.5 60.5h-229l-38 179h281q5 67 12 141t10 144h187l-22 -285h304q6 68 11.5 143.5t9.5 141.5h188l-22 -284h201l39 -180h-255q-2 -32 -4 -57t-3.5 -49.5t-3.5 -50.5t-5 -60h206l38 -181h-258q-7 -66 -11.5 -142t-10.5 -142h-190 l23 284h-303q-1 -17 -2 -37t-3 -37v1q-4 -51 -8 -108t-8 -103h-190l23 284h-225zM391 463h302q3 28 5.5 53.5t4.5 51t4.5 53l5.5 60.5h-305q-3 -33 -4.5 -59.5t-3.5 -51.5t-4 -50.5t-5 -56.5z" />
<glyph unicode="$" horiz-adv-x="1090" d="M-87 832q-14 90 6.5 150.5t65 99t106 57t128.5 23.5l-25 113h181l25 -114q81 -9 164 -31.5t164 -52.5l-39 -167q-39 16 -84 30t-91.5 24t-92.5 16t-88 6q-56 0 -101.5 -10.5t-77 -31t-47.5 -50t-13 -67.5q10 -39 38 -65t65 -43t78 -26.5t78 -15.5q14 -3 25 -4.5l22 -3 t23.5 -3t30.5 -4.5q33 -6 75 -14.5t86 -23.5t88 -38.5t81.5 -58.5t66.5 -84.5t43 -115.5l1 -5q12 -76 -2.5 -132t-48.5 -94.5t-85.5 -60.5t-112.5 -31l25 -119h-181l-24 114q-95 9 -202 38t-215 74l38 165q54 -23 110.5 -41.5t110.5 -32t104 -21t92 -7.5q51 0 91.5 9 t68 28.5t40.5 50t9 72.5q-10 38 -35 63t-58 41t-72 25t-77 17q-27 6 -55 9q-20 4 -60 9t-90.5 17.5t-106 34t-104.5 58.5t-87.5 91.5t-54.5 132.5z" />
<glyph unicode="%" horiz-adv-x="1457" d="M-146.5 986q9.5 44 35 76.5t65.5 51.5t90 19h118q49 0 96.5 -19t87.5 -51.5t68.5 -76.5t39.5 -95l23 -106q10 -50 0.5 -94t-35.5 -77t-66 -52t-89 -19h-118q-50 0 -98 19t-87.5 52t-67.5 77t-38 94l-23 106q-11 51 -1.5 95zM29 891l23 -106q6 -28 29.5 -48t50.5 -20h118 q26 0 42 20t10 48l-23 106q-6 29 -30 48t-50 19h-118q-27 0 -42.5 -19t-9.5 -48zM192 0l600 1143h225l-602 -1143h-223zM730.5 452q9.5 44 35 76.5t65.5 51.5t91 19h115q51 0 99 -19t87.5 -51.5t68 -76.5t39.5 -95l22 -106q11 -51 1.5 -95t-35 -76.5t-65.5 -51.5t-91 -19 h-115q-51 0 -99 19t-88 51.5t-68 76.5t-39 95l-22 106q-11 51 -1.5 95zM907 357l22 -106q6 -28 29.5 -47.5t51.5 -19.5h115q29 0 44 19.5t9 47.5l-22 106q-6 28 -29.5 47.5t-52.5 19.5h-115q-28 0 -43 -19.5t-9 -47.5z" />
<glyph unicode="&#x26;" horiz-adv-x="1273" d="M-41.5 960.5q9.5 57.5 38.5 99.5t76.5 66t110.5 24h255l37 -174h-254q-52 0 -75.5 -38t-9.5 -104q14 -68 53.5 -104.5t93.5 -38.5h491l-44 203h174l44 -203h76l36 -172h-76l34 -160q17 -80 -4 -148t-71.5 -118t-124.5 -78.5t-164 -28.5h-70q-88 0 -174.5 28.5 t-158.5 78.5t-122.5 118t-67.5 148l-8 40q-16 72 -7.5 125.5t38.5 88.5q-45 42 -76 98t-45 120l-1 5q-14 67 -4.5 124.5zM227 462q-6 -24 3 -63l8 -39q9 -40 37 -76t69.5 -63.5t94 -44t109.5 -16.5h70q58 0 104 16.5t76 44t42.5 64t4.5 75.5l-34 159h-492q-18 0 -37.5 -4 t-34 -16.5t-20.5 -36.5z" />
<glyph unicode="'" horiz-adv-x="307" d="M-200 1224h190l82 -423h-169z" />
<glyph unicode="(" horiz-adv-x="393" d="M-111 940.5q-8 178.5 24 374.5h193l-10 -55q-17 -87 -23 -173t-3 -169t14 -163.5t27 -156.5q19 -90 46.5 -176.5t58 -165.5t62 -148t59.5 -124.5t50.5 -95.5t34.5 -59h-195q-25 45 -63.5 121.5t-81 177t-82.5 221t-68 252.5q-35 161 -43 339.5z" />
<glyph unicode=")" horiz-adv-x="423" d="M-248 1315h192q115 -196 183.5 -376t102.5 -341q28 -132 38.5 -252t10.5 -220t-6.5 -176.5t-12.5 -120.5h-192q5 29 13.5 102.5t11 176.5t-6 229t-37.5 261q-16 76 -40.5 159t-60.5 173t-84.5 186t-111.5 199z" />
<glyph unicode="*" horiz-adv-x="929" d="M-132 909l19 181l259 -85q-8 30 -16 63.5l-16 67t-15.5 65.5t-13.5 58h189l47 -255q20 8 41 15.5t42 15.5h-1q32 13 72 28t68 26l97 -181l-229 -71l29 -29q20 -20 42.5 -43t44.5 -46.5t43 -45t38 -37.5l-129 -112l-189 205q-23 -48 -49.5 -102t-49.5 -103l-176 111 l112 202q-61 16 -130 35.5t-129 36.5z" />
<glyph unicode="+" horiz-adv-x="1008" d="M-61 662h330l-70 330h180l70 -330h329l38 -180h-329l70 -329h-180l-70 329h-330z" />
<glyph unicode="," horiz-adv-x="431" d="M82 284h205l13 -366h-171z" />
<glyph unicode="-" horiz-adv-x="1069" d="M-30 662h837l38 -180h-838z" />
<glyph unicode="." horiz-adv-x="400" d="M36.5 184q5.5 24 20 42t36 28.5t47.5 10.5q28 0 54.5 -10.5t48 -28.5t36.5 -42t21 -51t1 -50.5t-19 -41.5t-36 -28.5t-50 -10.5q-26 0 -52 10.5t-48 28.5t-37.5 41.5t-21.5 50.5t-0.5 51z" />
<glyph unicode="/" horiz-adv-x="749" d="M38 -161l345 1464h196l-346 -1466z" />
<glyph unicode="0" horiz-adv-x="1176" d="M-26 847q-5 71 19.5 130.5t72.5 103t118.5 68.5t159.5 27q89 -2 170.5 -26.5t148 -67.5t116 -102.5t73.5 -132.5h1q22 -60 38.5 -122t28.5 -122q10 -50 18 -94.5t13 -80.5t8 -61.5t5 -37.5v-3q7 -74 -16 -134.5t-72 -104t-120.5 -68t-160.5 -25.5q-90 1 -171.5 26.5 t-148.5 69.5t-116.5 104.5t-74.5 133.5q-2 8 -9.5 32t-18 60t-22.5 83t-24 100q-11 57 -21.5 122.5t-14.5 121.5zM158 822q4 -53 13 -111t20 -108q17 -81 35 -146t28 -94q11 -38 37 -70.5t64.5 -57.5t89.5 -40.5t111 -19.5q114 11 170.5 64.5t51.5 130.5q-2 7 -1 11 q-5 34 -13.5 93.5t-23.5 128.5q-11 51 -26.5 108.5t-33.5 111.5v-1q-13 34 -40.5 64.5t-66 53.5t-87.5 37.5t-104 18.5q-54 -4 -96 -19t-70.5 -38t-43.5 -53t-14 -64z" />
<glyph unicode="1" horiz-adv-x="930" d="M-84 800l405 342h158l243 -1142h-180l-193 907q-74 -62 -148.5 -126t-146.5 -125z" />
<glyph unicode="2" horiz-adv-x="1152" d="M-97 1066q84 40 187 66t206 26q78 0 161 -16.5t156 -55.5t129 -104t80 -162q14 -67 5.5 -117.5t-33 -88t-59.5 -63.5t-74 -43.5t-77 -28.5t-68 -19h1q-17 -5 -30 -7v1q-33 -8 -71.5 -25t-70 -48.5t-50.5 -80t-13 -119.5h652l39 -181h-837l-29 134q-18 86 -12 154 t28.5 120t57.5 90t74.5 64t80 42t74.5 25q38 10 82 22.5t80 33.5t57 53t12 80q-14 38 -43 68t-69.5 50.5t-90 31t-103.5 10.5q-42 0 -85.5 -6t-85.5 -16.5t-81 -24t-72 -29.5z" />
<glyph unicode="3" horiz-adv-x="1121" d="M-60.5 980.5q14.5 68.5 53.5 107t94 53t113 15.5h177q68 0 133 -14.5t119.5 -49.5t95 -94t59.5 -148l22 -103q10 -50 7.5 -94.5t-22.5 -79.5q38 -36 59 -77.5t33 -96.5l30 -143q17 -81 -1 -132.5t-60 -81t-100.5 -41t-122.5 -12.5h-178q-66 1 -130 18.5t-118 58 t-95.5 108t-62.5 169.5h178q11 -52 29.5 -85.5t44 -53t58 -27t72.5 -7.5h154q88 0 125 19t27 67l-30 142q-5 21 -12 37t-25.5 26.5t-53 16t-93.5 5.5h-130l-38 180h133q48 1 78.5 3.5t46 11.5t18.5 25.5t-3 45.5l-21 101q-8 37 -24 61.5t-40 39t-56 20.5t-73 6h-154 q-36 0 -65 -6t-48 -24.5t-24.5 -52.5t6.5 -91h-177q-23 109 -8.5 177.5z" />
<glyph unicode="4" horiz-adv-x="1118" d="M-5 393l407 749h221l152 -718h122l39 -181h-122l52 -243h-179l-52 243h-609zM236 424h360l-100 474q-23 -42 -46.5 -83.5t-46.5 -83.5t-43 -79t-39.5 -73t-40 -74t-44.5 -81z" />
<glyph unicode="5" horiz-adv-x="1148" d="M-76 1147h802l38 -181h-623l52 -243h320q46 -2 91.5 -8.5t87.5 -22.5t79 -41.5t66 -64.5l1 -1q42 -57 57 -127l43 -203q17 -81 -2 -132.5t-61 -81t-101 -41t-121 -12.5h-177q-69 1 -134 19.5t-119 60t-94.5 109t-61.5 165.5h180q10 -48 27 -81t42 -53.5t58 -29t76 -8.5 h156q87 0 125 19t28 66l-43 203q-10 45 -55 65t-134 20h-476z" />
<glyph unicode="6" horiz-adv-x="1132" d="M24 474.5q1 47.5 9 90.5l134 581h195l-92 -393q31 3 62.5 3.5t58.5 0.5q75 0 128.5 -4.5t80.5 -7.5q63 -7 120 -42t102 -88q80 -96 115 -241q13 -75 8.5 -140t-27 -113.5t-63 -79.5t-97.5 -39h-10q-22 -2 -74.5 -6t-120.5 -4q-45 0 -91.5 2t-91.5 10h1q-62 7 -115 38.5 t-96.5 81t-75.5 113.5t-51 137q-10 53 -9 100.5zM203.5 464.5q-3.5 -36.5 5.5 -88.5q19 -71 49.5 -112.5t67.5 -63.5t78.5 -28t81.5 -6h30q32 0 63 1t56.5 2.5t42.5 3.5t21 4h-2q10 3 25.5 14t27.5 34t16.5 59.5t-5.5 89.5q-10 46 -26.5 81t-36.5 59.5t-43 38.5t-46 17 q-6 1 -23 3t-41 4t-54 3.5t-63 1.5q-37 0 -76 -2.5t-77 -9.5q-16 -2 -31.5 -12.5t-26 -33.5t-14 -59.5z" />
<glyph unicode="7" horiz-adv-x="1046" d="M-184 1146h827q36 0 57 -38.5t44 -106.5l-280 -1001h-202l270 965h-678z" />
<glyph unicode="8" horiz-adv-x="1137" d="M-53.5 1006.5q16.5 59.5 56.5 93t96 46t116 14.5h179q70 -1 135 -17t118.5 -51.5t93 -94t57.5 -145.5l22 -103q9 -50 7 -94t-21 -77q16 -15 27 -29t23 -33l-2 2q17 -27 26 -56t16 -62l22 -103q14 -65 10 -113t-21.5 -82.5t-46 -57t-63.5 -35t-74 -17.5t-77 -5h-179 q-72 1 -137.5 17.5t-119 53t-92 95t-56.5 144.5l-22 103q-11 54 -9 98t25 79q-36 36 -55 79t-31 96l-21 100q-19 95 -2.5 154.5zM126 919q-8 -25 1 -67l21 -98q5 -25 14 -41.5t28 -26.5t52 -14t86 -5h170q48 0 78 3t46 12.5t19 26.5t-3 45l-21 98q-15 73 -62.5 100 t-131.5 27h-156q-35 0 -64 -4t-49 -17.5t-28 -38.5zM214.5 438q-0.5 -14 4.5 -38l22 -103q8 -38 24.5 -63t41.5 -40t58 -21.5t75 -6.5h161q33 0 62 4.5t49 18t28 39.5t-1 69l-26 124q-6 19 -17 31.5t-30.5 20t-51 10.5t-78.5 4q-1 0 -1.5 -0.5t-1.5 -0.5q-2 0 -3 0.5t-2 0.5 h-152q-41 0 -71 -2.5t-52 -7.5q-12 -3 -20.5 -6.5t-13 -11t-5 -21.5zM713 420q4 -13 4 -15.5t1 -4.5z" />
<glyph unicode="9" horiz-adv-x="1142" d="M-56.5 908.5q5.5 63.5 29 112.5t63.5 80.5t96 41.5q6 1 24 3t44.5 3.5t60 3t72.5 1.5q44 0 91.5 -1.5t92.5 -9.5q60 -10 113 -42t96.5 -80.5t76 -112.5t50.5 -137q18 -105 1 -191l-134 -580h-195l89 392q-28 -2 -58 -2.5t-60 -0.5q-40 0 -75.5 1.5t-63 3.5t-46 3.5 t-24.5 2.5q-63 8 -119.5 42t-101.5 88q-42 48 -70 108.5t-45 132.5q-13 74 -7.5 137.5zM119 856.5q-2 -36.5 6 -84.5q22 -91 62.5 -140.5t86.5 -57.5q45 -8 89.5 -9.5t95.5 -1.5q35 0 74 3t78 8h-1q20 4 35.5 20.5t24.5 42t11.5 59.5t-2.5 75q-20 70 -50 111t-66 62.5 t-75.5 28t-77.5 6.5h-40q-46 0 -88 -3t-67 -5q-32 -3 -52 -15t-35 -47l4 8q-11 -24 -13 -60.5z" />
<glyph unicode=":" horiz-adv-x="451" d="M-72 738q-6 27 0 50.5t20 41.5t35.5 28.5t47.5 10.5q28 0 54.5 -10.5t47.5 -28.5t36 -41.5t21 -50.5t1 -51t-18.5 -42t-35.5 -28.5t-50 -10.5q-26 0 -52 10.5t-48 28.5t-37.5 42t-21.5 51zM31 248q-6 27 0 50.5t20 41.5t36 28.5t48 10.5q28 0 54.5 -10.5t47.5 -28.5 t36 -41.5t21 -50.5t1 -51t-18.5 -42t-35.5 -28.5t-50 -10.5q-26 0 -52.5 10.5t-48.5 28.5t-37.5 42t-21.5 51z" />
<glyph unicode=";" horiz-adv-x="475" d="M-52.5 788.5q5.5 23.5 20 41.5t36 28.5t47.5 10.5q28 0 54 -10.5t47.5 -28.5t36.5 -41.5t21 -50.5t1 -51t-19 -42t-35.5 -28.5t-49.5 -10.5q-27 0 -53 10.5t-47.5 28.5t-37 42t-21.5 51t-0.5 50.5zM82 284h205l14 -366h-171z" />
<glyph unicode="&#x3c;" horiz-adv-x="796" d="M-21 630l284 510h228l-321 -570q60 -58 132.5 -131t148 -150t149 -152t134.5 -137h-228l-503 511z" />
<glyph unicode="=" horiz-adv-x="1059" d="M-47 805h805l39 -181h-805zM13 521h806l38 -181h-806z" />
<glyph unicode="&#x3e;" horiz-adv-x="806" d="M-149 1140h228l463 -470l40 -40l25 -119l-23 -39q-52 -96 -108 -194t-109 -195l-45 -83h-229l320 570q-59 60 -129.5 132t-145 147.5t-148.5 150t-139 140.5z" />
<glyph unicode="?" horiz-adv-x="1045" d="M-181 1205q42 20 89.5 37t98 29t103 19t103.5 7q49 0 103 -7t107.5 -22.5t103.5 -41t92 -63t73.5 -88t46.5 -116.5v-2q16 -76 11.5 -128.5t-22.5 -87.5t-46 -55.5t-58 -32t-58.5 -17.5t-47.5 -11q-24 -6 -45.5 -13t-36.5 -21t-20.5 -39t3.5 -67q4 -17 14.5 -50t29.5 -85 l-173 -28q-19 53 -32.5 93.5t-19.5 69.5q-16 73 -9.5 124t28 85t54.5 55t71.5 34.5t79.5 22.5t77 21h-1q8 4 14.5 11.5t10.5 21.5t3.5 36.5t-6.5 57.5q-13 40 -43 71t-71.5 51t-91.5 30.5t-103 10.5q-42 0 -85.5 -6t-86 -16.5t-81.5 -25t-71 -30.5zM303 133q-6 27 0 51 t20 42t36 28.5t48 10.5q28 0 54.5 -10.5t47.5 -28.5t36 -42t21 -51t1 -50.5t-18.5 -41.5t-35.5 -28.5t-50 -10.5q-26 0 -52.5 10.5t-48.5 28.5t-37.5 41.5t-21.5 50.5z" />
<glyph unicode="@" horiz-adv-x="1561" d="M-10 802q26 120 96.5 209.5t179.5 142t246 52.5q90 0 179.5 -24t172 -67t155.5 -103.5t132 -133.5t100.5 -157t60.5 -175t13.5 -175.5t-33 -157.5t-75 -133.5t-111.5 -103.5t-143.5 -66.5t-169.5 -23.5q-137 0 -268 52t-240 141.5t-186 209.5t-106 257q-29 136 -3 256z M147 546q14 -67 46.5 -130t78 -119.5t102.5 -103.5t120.5 -80.5t131 -52.5t134.5 -19q35 0 66.5 5t63.5 15l-29 136q-95 -32 -179 -32q-61 0 -115 16t-97 47.5t-73.5 78.5t-43.5 109q-15 71 -4.5 122.5t41.5 84.5t80 48.5t110 15.5q75 0 182 -24l-3 11q-3 16 -15 32t-31 28 t-44 19.5t-55 7.5q-22 0 -49 -1t-56.5 -7t-60.5 -18.5t-62 -34.5l-107 145q38 28 76.5 43.5t77 22.5t75.5 8.5t72 1.5q60 0 118 -15.5t106 -46.5t82 -77.5t47 -107.5l111 -522q8 8 14.5 14t14.5 17q26 33 46 74.5t32 89t14 98t-9 101.5q-14 66 -46 129.5t-77.5 119.5 t-102.5 103t-120 81t-130.5 53t-134.5 19q-101 0 -183.5 -41.5t-137.5 -111.5t-76.5 -161t-0.5 -191zM528 416q8 -38 35.5 -56.5t81.5 -18.5q35 0 78 9t99 31l-22 100q-58 15 -102.5 22t-79.5 7q-58 0 -79.5 -20.5t-10.5 -73.5z" />
<glyph unicode="A" horiz-adv-x="1245" d="M41 0l241 1161h200l735 -1161h-199l-164 259h-560q-13 -62 -27.5 -130t-25.5 -129h-200zM330 442h408q-41 65 -78.5 124.5t-75 118t-75 118t-78.5 124.5q-14 -65 -26.5 -124.5t-24.5 -118t-24 -118t-26 -124.5z" />
<glyph unicode="B" horiz-adv-x="1235" d="M-101 1163h453q60 0 109 -1t93 -6q73 -9 127.5 -32t94.5 -62.5t66 -96t42 -132.5q11 -51 11 -94v-7q-1 -46 -19 -84q33 -21 57.5 -49t42.5 -62t31 -74t23 -86l1 -1q19 -88 18 -149q0 -65 -18 -108q-18 -42 -53.5 -66t-86.5 -36t-117.5 -14.5t-145.5 -2.5l-483 1zM120 982 l57 -267q41 0 80.5 -0.5t81.5 -0.5h182q72 0 112.5 7t59.5 20q11 8 15 27q1 5 0 12q0 19 -7 54q-11 52 -28.5 81.5t-51 44.5t-88.5 18.5t-142 3.5h-271zM215 533l75 -350q118 2 232.5 4t232.5 2q31 4 54 13.5t35.5 30.5t13.5 55v6q0 33 -10 82l-1 1q-12 57 -30.5 88.5 t-53.5 46.5t-91 18t-143 3h-314z" />
<glyph unicode="C" horiz-adv-x="1125" d="M-76 858q-1 11 -1 22q0 62 25 115q29 62 86 106.5t140 68.5t186 24q92 0 210 -22.5t265 -73.5l-24 -172q-134 45 -235.5 65t-176.5 20q-74 0 -128.5 -14t-90.5 -38.5t-54 -57t-17 -69.5q5 -55 13 -113t19 -109q10 -47 21 -89t20.5 -76.5t17.5 -59t11 -35.5 q16 -36 48.5 -68.5t79 -57t106.5 -39t131 -14.5q75 0 169.5 20t207.5 65l98 -172q-126 -51 -234.5 -73.5t-201.5 -22.5q-103 0 -196 24.5t-169 69.5t-131.5 107.5t-82.5 138.5q-2 7 -10 31.5t-18.5 62t-23 85.5t-24.5 103q-13 59 -23 124.5t-13 123.5z" />
<glyph unicode="D" horiz-adv-x="1179" d="M-132 1150q262 27 415 27q118 0 208 -13.5t157.5 -42.5t116 -74.5t84 -108.5t61 -145t47.5 -184q12 -58 20.5 -109t13.5 -89t7 -61.5t3 -26.5q2 -20 1 -39q0 -65 -18 -112q-24 -61 -81.5 -98.5t-149.5 -53.5t-220 -16q-77 0 -183 6.5t-245 19.5zM85 985l168 -789 q69 -5 129.5 -7t111.5 -2q102 0 165 9.5t99 29.5q34 20 46 50q10 26 10 61v12v16.5t-1 16t-2.5 18.5t-4.5 24l-1 6q-8 35 -14 81t-17 98q-11 51 -26.5 109.5t-35.5 112.5q-14 37 -36.5 67t-65 51.5t-110 33t-169.5 11.5h-56.5t-54.5 -1t-60.5 -3t-74.5 -5z" />
<glyph unicode="E" horiz-adv-x="1079" d="M-136 1163h870l39 -182h-688l66 -309h628l38 -182h-628l66 -308h688l39 -182h-871z" />
<glyph unicode="F" horiz-adv-x="1079" d="M-136 1163h868l39 -182h-687l66 -309h629l38 -182h-629l105 -490h-182z" />
<glyph unicode="G" horiz-adv-x="1174" d="M-68 850v9q0 70 28 127q31 62 88 106t138 68.5t182 25.5q93 -1 211.5 -24.5t265.5 -71.5l-27 -172q-132 45 -234.5 65t-176.5 20q-73 0 -128 -14t-91.5 -38t-53.5 -57q-14 -28 -14 -60v-11q3 -57 11.5 -114t19.5 -110q10 -46 20.5 -88t20.5 -76t17.5 -57.5t10.5 -32.5 l1 -5h1q12 -37 42.5 -69.5t76.5 -57t108 -39t137 -14.5q112 0 252 41l-65 304h184l92 -435q-120 -48 -226 -70t-198 -22q-104 0 -198 23.5t-170 68t-131 107t-82 140.5l-10.5 35t-18 62.5t-23 84.5t-23.5 100q-13 60 -22.5 125.5t-14.5 125.5z" />
<glyph unicode="H" horiz-adv-x="1197" d="M-133 1161h181l104 -489h607l-104 489h182l247 -1161h-182l-104 489h-607l104 -489h-182z" />
<glyph unicode="I" horiz-adv-x="431" d="M-106 1161h182l247 -1161h-183z" />
<glyph unicode="J" horiz-adv-x="901" d="M-12 214q138 -24 240.5 -40t162.5 -16q55 0 90 10.5t53 36t19 68.5v6q0 41 -13 102l-128 598h-281l-39 184l465 -2l166 -780q20 -91 20 -159q0 -15 -1 -30q-6 -76 -41.5 -123.5t-101.5 -68t-164 -20.5q-75 0 -183 13.5t-257 40.5z" />
<glyph unicode="K" horiz-adv-x="1165" d="M-134 1160h182l107 -505q54 26 107.5 45t105.5 31l4 1q89 15 145.5 45.5t86.5 77.5q28 47 32 111q1 11 1 22q0 56 -14 124l-10 50h181l10 -50q12 -60 16 -117q1 -20 2 -39q0 -36 -4 -70q-6 -52 -24 -99.5t-48 -86.5q14 -7 26 -14t25 -16q63 -39 105.5 -97t56.5 -126 l96 -447h-184l-95 445q-6 24 -23 46t-44.5 38.5t-66.5 26t-89 9.5q-73 0 -163 -25.5t-191 -88.5l96 -451h-183z" />
<glyph unicode="L" horiz-adv-x="1062" d="M-136 1164h181l208 -980h684l40 -184h-866z" />
<glyph unicode="M" horiz-adv-x="1313" d="M-131 1164h155l476 -441q31 51 67.5 106.5t74 112.5t75.5 113t72 109h155l248 -1164h-180l-182 854q-30 -45 -64.5 -96.5t-70 -105.5t-70.5 -107t-66 -101l-444 411l182 -855h-181z" />
<glyph unicode="N" horiz-adv-x="1196" d="M-134 1164h154l787 -739l-157 739h185l248 -1164h-185l-31 145q-101 95 -194 182.5t-184.5 173.5t-184 172.5t-192.5 180.5l182 -854h-181z" />
<glyph unicode="O" horiz-adv-x="1228" d="M-74 854v14q0 67 26 123q29 62 85.5 105.5t138.5 67.5t184 24q107 0 200.5 -24t168 -68t128 -105.5t81.5 -135.5q23 -63 40 -127t31 -126q12 -56 19.5 -105t12 -86.5t7 -62.5t4.5 -32q1 -13 1 -26q1 -60 -23 -112q-28 -62 -85.5 -106t-140.5 -67.5t-187 -23.5 q-102 0 -194.5 23t-169 66.5t-132 106t-82.5 142.5q-2 11 -10 37t-19 63.5t-23.5 84t-23.5 98.5q-14 61 -23.5 125.5t-13.5 126.5zM111 826q3 -56 12 -115t20 -109q10 -46 21 -88.5t21 -77t18 -59.5t11 -36q14 -35 45 -67.5t77.5 -57t107 -39.5t134.5 -15q73 0 127.5 14.5 t90.5 38.5t53 56.5t17 68.5q-2 12 -4.5 35.5t-7 56t-10.5 73t-16 85.5q-11 51 -28 114t-37 122v-2q-16 36 -49 68.5t-80 57.5t-106.5 39.5t-128.5 14.5q-72 0 -126.5 -14.5t-90.5 -38.5q-37 -25 -55 -57q-16 -29 -16 -61v-7z" />
<glyph unicode="P" horiz-adv-x="1100" d="M-136 1163h427q69 0 133 -1.5t121 -12.5t107 -33.5t90.5 -64.5t72 -107t51.5 -159q16 -77 16 -133v-14q-2 -60 -23 -98.5t-57.5 -59t-86 -30t-110 -11t-128.5 -1.5h-276l94 -438h-184zM86 980l77 -359h276q54 0 97.5 0.5t75.5 5.5q25 3 43.5 9.5t28 23t9.5 46t-11 80.5v1 q-14 67 -33.5 106t-59.5 58t-109 24t-182 5h-212z" />
<glyph unicode="Q" horiz-adv-x="1231" d="M-74 852v18q0 66 24 120q29 61 86 104.5t139.5 67.5t186.5 24q102 0 194.5 -23.5t168.5 -67t131 -105.5t84 -138l1 -1q22 -61 39.5 -125t30.5 -126q10 -50 17.5 -94t13 -80t8 -62.5t4.5 -40.5q1 -3 1 -5.5v-4.5q1 -10 1 -20q0 -55 -19 -101q-22 -56 -66.5 -98.5 t-110.5 -70t-149 -38.5q11 -25 37 -44.5t80 -19.5q26 0 69.5 6.5t106.5 22.5l81 -181q-139 -31 -218 -31q-95 0 -156.5 25t-99.5 62.5t-56.5 80.5t-27.5 79q-92 9 -170.5 36t-140.5 69.5t-107 99.5t-70 126q-2 6 -9 30.5t-17.5 62t-23 86.5t-24.5 105q-14 63 -24 127 t-15 125zM113 824q5 -54 13 -113.5t19 -110.5q10 -47 21.5 -90t21.5 -77.5t17.5 -58.5t10.5 -33q13 -36 43 -68.5t76.5 -57.5t108 -39.5t136.5 -15.5q72 1 125.5 16t89.5 39.5t54 56.5t18 67l-1 5q0 9 -2.5 33t-7 57.5t-11.5 76t-17 89.5q-11 49 -27 109t-36 114v-1 q-16 36 -47.5 69t-78 58t-106.5 40t-132 15q-73 0 -127 -15t-90 -39.5t-53.5 -57.5t-16.5 -69z" />
<glyph unicode="R" horiz-adv-x="1109" d="M-134 1163h386q69 0 128 -2t106 -7q82 -10 144 -36t106.5 -71t74 -110t48.5 -153q15 -72 15 -127q0 -51 -12 -89q-26 -79 -114 -108q7 -11 14.5 -22t16.5 -24q46 -71 119.5 -175t191.5 -241h-218q-54 66 -101 131t-85.5 122.5t-67.5 105t-48 80.5q-23 -1 -47.5 -1h-50.5 h-270l93 -437h-182zM86 979l77 -359h270q107 0 166.5 5t75.5 22q11 11 13 43q0 5 1 10q0 31 -12 86q-15 70 -36.5 109t-63.5 57.5t-110 22.5t-176 4h-205z" />
<glyph unicode="S" horiz-adv-x="1067" d="M-100 960q8 52 34 90t65.5 64.5t87.5 42.5t100.5 23t105.5 7q52 0 107.5 -7t112.5 -19.5t113 -30t108 -38.5l-40 -165q-39 16 -85 30.5t-93 24.5t-94.5 16t-89.5 6q-60 0 -108 -9.5t-81 -29.5t-47 -51q-9 -20 -10 -45q0 -14 3 -28q6 -31 26 -54t47.5 -39.5t61 -27.5 t67.5 -19t65.5 -14t56.5 -11q10 -2 23 -4t14 -2q33 -6 75 -14t87.5 -22.5t91 -38t85 -59t70 -85t46.5 -117.5v-1q6 -38 6 -70q-1 -51 -15 -91q-24 -66 -76 -106t-124 -57.5t-149 -17.5q-55 0 -117 8.5t-126.5 24.5t-130.5 38.5t-129 49.5l39 164q54 -22 110 -40.5 t110.5 -31.5t105.5 -20.5t95 -7.5q51 0 95 8.5t74.5 27t44.5 48.5q8 18 7 40q0 16 -4 35q-10 47 -46 74.5t-82.5 44t-96.5 25.5t-88 18q-26 6 -69 13t-93.5 20.5t-103.5 35.5t-100 58.5t-83.5 89.5t-52.5 129q-9 41 -9 77q0 21 3 40z" />
<glyph unicode="T" horiz-adv-x="994" d="M-223 1164h951l39 -183h-383l209 -981h-182l-209 981h-386z" />
<glyph unicode="U" horiz-adv-x="1197" d="M-141 1161h182l109 -514q18 -85 34 -155t35 -127q19 -52 43 -90.5t62.5 -64t96 -38t143.5 -12.5q109 0 166 22q58 22 78 74q12 33 12 80q0 28 -4 60q-12 88 -40 222l-115 543h183l109 -513q20 -93 34 -169t20 -138q2 -30 3 -57q0 -64 -14 -112q-18 -70 -67 -113t-130 -63 t-198 -20q-120 0 -207 19t-149.5 57t-105 94.5t-73 131t-53 167t-45.5 202.5z" />
<glyph unicode="V" horiz-adv-x="1219" d="M-229 1163h198l596 -930q49 232 100 464.5t99 465.5h199l-248 -1163h-201z" />
<glyph unicode="W" horiz-adv-x="1390" d="M-146 1163h182l274 -866q26 46 54.5 96.5t57 102.5l57 104t54.5 101l389 -397q-11 101 -22.5 208.5t-23.5 217l-24 219t-24 214.5h184l128 -1163h-153l-389 398q-25 -43 -52.5 -93t-55.5 -101.5t-56 -103.5t-54 -100h-159z" />
<glyph unicode="X" horiz-adv-x="1214" d="M-228 1163h232l452 -460q3 5 5.5 10t5.5 10q60 106 124 221.5t123 218.5h232l-327 -581l575 -582h-232l-454 460q-65 -112 -129 -229t-127 -231h-233l327 581q-67 68 -139.5 141.5t-146.5 148.5t-147 149t-141 143z" />
<glyph unicode="Y" horiz-adv-x="1181" d="M-236 1163h230l452 -460l6 10t5 10q60 106 124 221.5t123 218.5h232l-359 -638l112 -525h-183l-111 521q-72 73 -151 153.5t-160.5 163t-162.5 165t-157 160.5z" />
<glyph unicode="Z" horiz-adv-x="1153" d="M-148 1162h891q29 0 54 -40t48 -112l-529 -828h705l39 -182h-892q-30 0 -56 41.5t-52 118.5l527 820h-697z" />
<glyph unicode="[" horiz-adv-x="478" d="M-158 1318h357l39 -182h-178l240 -1128h178l38 -181h-358z" />
<glyph unicode="\" horiz-adv-x="778" d="M-346 1303h197l964 -1466h-195z" />
<glyph unicode="]" horiz-adv-x="492" d="M-241 1317h357l316 -1491h-358l-38 182h178l-239 1128h-178z" />
<glyph unicode="^" horiz-adv-x="1021" d="M-110 732l272 487h170l480 -487h-228l-298 300q-42 -75 -84.5 -150t-84.5 -150h-227z" />
<glyph unicode="_" horiz-adv-x="1141" d="M64 38h1013l39 -180h-1013z" />
<glyph unicode="`" horiz-adv-x="471" d="M-208 1225h226l280 -446h-193z" />
<glyph unicode="a" horiz-adv-x="1015" d="M-80 830q97 72 198.5 107.5t195.5 35.5q73 0 146 -19t134.5 -57t105.5 -96.5t61 -136.5l142 -664h-114q-17 0 -33.5 15t-30.5 40q-76 -29 -148 -43.5t-139 -14.5q-77 0 -145 21t-122 60.5t-91 97t-53 131.5q-11 54 -11 99q0 30 4 56q12 65 51 107t101 62t143 20 q60 0 127.5 -10t151.5 -31l-12 54q-6 28 -24.5 52t-47.5 41t-67.5 26.5t-84.5 9.5q-70 0 -150 -26.5t-161 -86.5zM204 311q8 -35 22.5 -59t35.5 -40q47 -36 138 -36q55 0 123.5 16t148.5 50l-38 181q-88 23 -158 36.5t-123 13.5q-94 0 -130 -39q-24 -26 -24 -74q0 -22 5 -49 z" />
<glyph unicode="b" horiz-adv-x="1018" d="M-156 1263h179l73 -341q57 25 112 36.5t110 11.5q76 0 148 -21t131.5 -57.5t104 -87t67.5 -109.5v-1q32 -87 56 -196q15 -74 23 -133.5t10 -84.5q1 -13 1 -25q0 -59 -20 -103q-24 -52 -68.5 -86t-104.5 -49.5t-126 -15.5q-65 0 -134 12t-138 37q-4 -50 -41 -50h-115z M138 723l102 -482q66 -29 134 -45t128 -16q78 0 126 30q47 29 47 88q-1 2 -3 19q-2 10 -4 39q-4 28 -9.5 64.5t-13.5 77.5q-9 40 -21 83.5t-27 85.5q-9 23 -30 45t-52 39.5t-71.5 28t-86.5 10.5q-52 0 -107 -14.5t-112 -52.5z" />
<glyph unicode="c" horiz-adv-x="936" d="M-32 692v14q0 54 21 98q24 50 70 86.5t112.5 56.5t148.5 20q73 0 168.5 -19t216.5 -61l-27 -167q-106 35 -184.5 51.5t-135.5 16.5q-54 0 -93.5 -10t-65 -26.5t-37.5 -38.5t-11 -47q2 -44 9.5 -87t15.5 -82q12 -58 25.5 -105t21.5 -73q1 -5 1.5 -5.5t0.5 -1.5 q9 -26 30 -50t53.5 -42.5t77 -29.5t101.5 -11t129 16t163 51l98 -167q-104 -41 -191 -60.5t-160 -19.5q-82 0 -157.5 20t-137.5 56t-107.5 87t-67.5 114q-3 7 -9 26.5t-14.5 49t-17.5 66.5t-18 79q-10 47 -18 97.5t-11 97.5z" />
<glyph unicode="d" horiz-adv-x="1021" d="M-43 693v13q0 50 20 95q23 50 67.5 87.5t107 59t138.5 21.5q54 0 115.5 -11.5t127.5 -37.5l-73 342h179l269 -1262h-114q-16 0 -33 14t-30 37q-59 -23 -124.5 -37t-126.5 -14q-67 0 -134 15.5t-126 49.5t-105 86.5t-71 126.5l1 -1q-2 5 -8 24t-14.5 48t-18 66.5 t-18.5 81.5q-11 48 -18.5 99t-10.5 97zM140 667q2 -44 8.5 -87t14.5 -83q11 -52 23.5 -94t20.5 -70q1 -7 5 -16q56 -137 229 -137q60 0 121.5 16t114.5 45l-102 482q-73 38 -134 52t-113 14q-48 0 -83.5 -10.5t-59.5 -27.5q-23 -17 -35 -39q-10 -19 -10 -38v-7z" />
<glyph unicode="e" horiz-adv-x="1016" d="M-33 694v9q-1 55 21 101q24 50 68.5 85.5t109 55.5t144.5 22l-2 -1h3q79 -2 151 -21t130.5 -54.5t102 -85t66.5 -112.5q17 -45 30 -92.5t23 -94.5l28 -133h-636q6 -14 10 -29t8 -31q9 -26 30 -50.5t53.5 -43t76.5 -29.5t101 -11q56 0 129.5 16.5t164.5 51.5l97 -169 q-103 -40 -190.5 -59t-161.5 -19q-83 0 -158 19t-136.5 55t-107 87.5t-67.5 115.5q-2 5 -8 24t-14 48t-17.5 66.5t-18.5 81.5q-11 48 -19 99t-11 98zM152 654v-5q0 -23 4 -47q4 -26 9 -50h457q-7 29 -15 57.5t-17 57.5q-9 24 -29.5 45.5t-51.5 37.5t-72.5 26t-92.5 11 q-59 -1 -96 -12.5t-58.5 -29.5t-29.5 -41.5t-8 -49.5z" />
<glyph unicode="f" horiz-adv-x="547" d="M-161 951h110q-6 32 -11 68q-2 22 -2 43q0 14 1 28q3 34 15 65.5t39 56t71 38.5t110 14q27 0 66.5 -4t92.5 -12l10 -179q-54 8 -84 11.5t-47 3.5q-47 0 -65.5 -9.5t-22.5 -21.5v9v-10q-7 -16 -4 -43.5t9 -57.5h221l39 -180h-221l204 -963q3 -28 3 -49q0 -25 -4 -43 q-8 -33 -37 -33l-114 -1l-230 1089h-110z" />
<glyph unicode="g" horiz-adv-x="1022" d="M-41 691q-1 15 -1 29q0 55 18 96q24 53 68 86.5t103.5 49t127.5 15.5q64 0 133.5 -12.5t139.5 -37.5q5 50 41 50h114l196 -921q7 -32 11 -72q3 -19 3 -39t-3 -40q-4 -40 -20 -77.5t-51.5 -67t-92.5 -47t-142 -17.5q-57 0 -139 12t-197 40l4 173q103 -25 175.5 -35.5 t118.5 -10.5q70 0 104.5 17.5t47.5 44.5t10 58.5t-9 60.5q-55 -25 -111 -36.5t-111 -11.5q-75 0 -146.5 21t-131.5 57.5t-105 87t-68 109.5q-17 47 -30.5 98t-22.5 99q-9 43 -15.5 80.5t-10.5 66.5t-6 48.5t-2 25.5zM141 669v1q4 -36 7.5 -64.5t7.5 -52t7.5 -43.5t8.5 -40 q8 -41 20 -84.5t28 -85.5q8 -23 28.5 -45t51.5 -39t71 -27.5t88 -10.5q51 0 105.5 15.5t111.5 51.5l-102 481q-64 29 -132.5 45.5t-128.5 16.5q-82 0 -129 -29q-43 -26 -43 -79v-11z" />
<glyph unicode="h" horiz-adv-x="1043" d="M-156 1262h178l73 -341q57 25 112.5 36.5t110.5 11.5q75 0 147 -20.5t132.5 -57.5t105.5 -87.5t66 -110.5q17 -45 30 -93t25 -103l106 -497h-180l-106 497q-8 39 -20 83t-27 86q-10 22 -32 44t-53.5 39.5t-71 28.5t-84.5 11q-53 0 -107.5 -14.5t-111.5 -52.5l154 -722 h-179z" />
<glyph unicode="i" horiz-adv-x="373" d="M-160 1203q4 21 16 36.5t31 24.5t42 9t45.5 -9t41.5 -24.5t32 -36.5t18 -44t0 -43.5t-17 -36t-30.5 -24.5t-41.5 -9t-45.5 9t-41.5 24.5t-32 36t-18 43.5q-3 12 -3 24q1 10 3 20zM-92 970l206 -970h180l-180 845q-20 60 -42 92.5t-51 32.5h-113z" />
<glyph unicode="j" horiz-adv-x="373" d="M-164 1200q5 21 17 36.5t31 24.5t43 9q23 0 45.5 -9t41 -24.5t32 -36t18.5 -44.5q5 -23 0 -43.5t-17 -36t-30.5 -24.5t-41.5 -9q-24 0 -46.5 9t-41.5 24.5t-32 36t-18 43.5q-3 13 -3 24t2 20zM-101 -110q54 -9 84 -12.5t47 -3.5q42 0 62 12.5t26 32.5t2 44.5t-9 49.5 l-203 957h113q29 0 51 -32.5t42 -92.5l177 -832q6 -28 11 -62q5 -27 5 -54q0 -8 -1 -15q-1 -36 -11.5 -69.5t-37.5 -59.5t-72.5 -42t-116.5 -16q-29 0 -67.5 3.5t-91.5 12.5z" />
<glyph unicode="k" horiz-adv-x="1051" d="M-156 1262h178l131 -613q59 29 115 47t109 25q58 6 98 20t61.5 42.5t25.5 74.5q1 10 1 20q0 40 -12 95h178q19 -87 19 -157q0 -15 -1 -29q-5 -80 -44 -132q52 -35 86.5 -83.5t47.5 -107.5l99 -464h-178l-99 462q-8 35 -48.5 60t-118.5 25q-63 0 -137.5 -21.5 t-159.5 -75.5l96 -450h-179z" />
<glyph unicode="l" horiz-adv-x="382" d="M-151 1263h114q28 0 49.5 -32.5t41.5 -92.5l242 -1138h-179z" />
<glyph unicode="m" horiz-adv-x="1426" d="M-84 967h113q20 0 36.5 -15.5t31.5 -44.5q63 33 117.5 48t105.5 15q63 0 124.5 -23.5t104.5 -67.5q78 45 146.5 68.5t124.5 23.5q28 0 60.5 -6t64 -17t59 -27.5t47.5 -37.5q33 -37 52.5 -81t29.5 -89l152 -713h-179l-152 713q-8 38 -34 58.5t-62 20.5q-35 0 -89.5 -19.5 t-134.5 -73.5l150 -700h-180l-152 714q-8 37 -33.5 57.5t-60.5 20.5q-33 0 -87 -18.5t-123 -60.5l152 -712h-179z" />
<glyph unicode="n" horiz-adv-x="1016" d="M-101 967h114q37 0 68 -68q81 42 156.5 61.5t144.5 19.5t130.5 -18.5t110.5 -53t82 -83t46 -108.5l153 -717h-178l-153 717q-8 35 -45.5 59t-107.5 24q-59 0 -130.5 -21.5t-156.5 -75.5l150 -703h-179z" />
<glyph unicode="o" horiz-adv-x="1049" d="M-35 712v3v5v14q-1 54 19 96q22 48 65.5 83t105 55.5t137.5 25.5q84 0 160.5 -18.5t140.5 -53.5t111 -86t73 -117l3 -11q3 -12 9.5 -34.5t15.5 -52.5t18.5 -66t17.5 -75q5 -24 10 -51t9 -54.5t7 -54t5 -48.5q0 -60 -24 -111t-69.5 -88t-110 -57.5t-144.5 -20.5h-19 q-123 7 -225 50.5t-162 123.5q-21 28 -33 50t-26 54q-9 20 -27 82.5t-37 153.5q-10 48 -18 101t-11 100q-1 1 -1 2zM151 687v1q4 -44 10.5 -90.5t14.5 -88.5q14 -64 29.5 -115.5t23.5 -75.5q9 -26 28.5 -49.5t50 -43t72 -32.5t94.5 -16h3h6q51 1 89.5 11.5t63.5 27.5 q24 18 36 40q11 21 11 43q0 35 -9 95q-7 46 -16 86q-13 61 -26.5 111t-21.5 76q-9 27 -31 51.5t-55 44t-77 32.5t-97 17q-104 -4 -152 -40t-47 -85z" />
<glyph unicode="p" horiz-adv-x="1021" d="M-93 967h115q33 0 62 -50q59 25 122.5 37.5t128.5 12.5q67 0 133.5 -15.5t125 -49t104.5 -86t71 -125.5q2 -6 8 -24.5t15 -48t19 -67.5t19 -81q10 -48 17.5 -99t9.5 -98v-9q0 -53 -21 -100q-24 -50 -68.5 -87t-106.5 -58t-137 -21q-54 0 -114.5 11.5t-127.5 36.5l77 -364 h-180zM137 726l102 -481q73 -36 134.5 -51.5t112.5 -15.5q47 0 83 10.5t60 28t35 39.5q10 20 10 42q0 32 -8 90q-7 43 -15 82q-4 19 -10.5 45t-13.5 52t-13.5 48.5t-10.5 34.5q-12 32 -33.5 57.5t-51.5 43.5t-67 27.5t-78 9.5q-60 0 -122 -16.5t-114 -45.5z" />
<glyph unicode="q" horiz-adv-x="1021" d="M-42 691q-2 17 -2 32q0 53 18 93q24 53 68.5 86.5t104.5 49t127 15.5q64 0 133.5 -12.5t139.5 -37.5q2 26 13 38t27 12h115l273 -1285h-179l-77 364q-56 -25 -112 -36.5t-111 -11.5q-75 0 -146.5 21t-131.5 58t-105.5 87.5t-67.5 108.5q-17 47 -30.5 98t-22.5 99 q-9 43 -15.5 80.5t-10.5 67t-6 48.5t-2 25zM141 654q6 -26 10.5 -76t17.5 -108q8 -39 19.5 -82.5t28.5 -85.5q9 -24 30 -46t52 -39.5t71.5 -28t87.5 -10.5q51 0 106 15.5t112 51.5l-102 481q-66 29 -134 45.5t-128 16.5q-83 0 -130 -35q-41 -32 -41 -87v-12z" />
<glyph unicode="r" horiz-adv-x="582" d="M-102 967h113q17 0 34 -15t30 -38q59 32 128 48t144 16l26 -126q2 -23 -14.5 -35.5t-46.5 -20.5q-41 -5 -87 -24t-95 -57l152 -715h-179z" />
<glyph unicode="s" horiz-adv-x="866" d="M-86 689q-6 32 -6 60q0 45 16 79q24 56 72 89t112 46.5t129 14.5q41 0 87 -6.5t93.5 -17t94.5 -25t91 -31.5l-40 -164q-32 13 -68.5 24.5t-74.5 20.5t-75 14t-70 5q-44 0 -80 -6.5t-60.5 -20.5t-35.5 -35.5t-6 -51.5q6 -26 27.5 -43.5t51 -29.5t62.5 -20t62 -13 q5 -1 10.5 -2t10.5 -2t9 -2t7 -2q3 0 7.5 -0.5t10.5 -1.5q2 0 5 -0.5t5 -0.5q27 -5 62 -11.5t73 -19t77 -32.5t72.5 -50.5t59 -73.5t38.5 -101v-3q5 -31 5 -58q0 -42 -12 -76q-20 -54 -63.5 -87.5t-103 -48t-125.5 -14.5q-90 0 -198.5 27.5t-218.5 73.5l39 162 q45 -19 91 -34.5t90 -26.5t84.5 -17t74.5 -6q80 0 120 30q36 27 37 72q0 6 -1 12q-7 27 -25.5 44t-44.5 28t-56.5 17.5t-61.5 12.5l-43 9h2q-2 0 -3.5 0.5t-3.5 0.5q-8 0 -11 0.5t-8 1.5q-26 4 -61.5 10.5t-75 19t-80 32.5t-75.5 51t-62 74.5t-39 102.5z" />
<glyph unicode="t" horiz-adv-x="638" d="M-152 950h111l-67 312h178l67 -312h221l38 -180h-221l95 -449q6 -25 12.5 -50t20.5 -45.5t39 -33t68 -12.5q17 0 46.5 3t79.5 12l66 -179q-50 -8 -87 -12t-66 -4q-71 0 -123.5 16t-90.5 42.5t-63 60t-41 69.5t-25 70.5t-15 62.5l-94 449h-111z" />
<glyph unicode="u" horiz-adv-x="1025" d="M-93 967h178l152 -717q8 -35 45.5 -59t106.5 -24q60 0 131.5 21.5t156.5 75.5l-149 703h178l206 -967h-113q-21 0 -38 18t-33 50q-81 -42 -156.5 -61t-144.5 -19t-130.5 19t-110.5 53t-82 82t-46 108z" />
<glyph unicode="v" horiz-adv-x="963" d="M-216 969h147q18 0 45 -23.5t59 -66.5l387 -610q37 176 74.5 351t76.5 349h194l-212 -969h-155z" />
<glyph unicode="w" horiz-adv-x="1295" d="M-86 966h177l152 -712q3 -16 17.5 -31.5t36.5 -28t50 -20t59 -7.5q62 0 109 42l-109 515h178l109 -513q35 -23 64 -33.5t63 -10.5q31 0 56 7.5t41.5 20t24.5 28t5 31.5l-152 712h180l152 -712q5 -24 5 -46q0 -33 -10 -62q-18 -49 -56 -84t-92.5 -54.5t-115.5 -19.5 q-52 0 -108 15.5t-112 49.5q-42 -34 -91.5 -49.5t-102.5 -15.5q-60 0 -122.5 19.5t-115 54.5t-91 84t-50.5 108z" />
<glyph unicode="x" horiz-adv-x="1054" d="M-205 970h234l368 -347q55 88 111 175t110 172h235l-309 -485l516 -485h-234l-370 346q-54 -86 -110 -173t-110 -173h-235l306 485q-61 57 -128 120.5t-133.5 126.5t-130.5 124t-120 114z" />
<glyph unicode="y" horiz-adv-x="1035" d="M-99 968h177l106 -498q8 -39 19.5 -82.5t28.5 -86.5q8 -23 29 -45.5t52.5 -39.5t71.5 -27.5t87 -10.5q51 0 106 15.5t112 51.5l-153 723h180l195 -922q7 -32 12 -71q2 -19 2 -39t-2 -40q-5 -40 -21 -77.5t-51.5 -67t-92.5 -47t-142 -17.5q-58 0 -140.5 12t-197.5 40 l8 172q103 -24 174.5 -34t117.5 -10q66 0 101 15.5t49.5 40t13 54.5t-7.5 58l-2 11q-56 -25 -112 -36t-111 -11q-77 0 -148.5 20t-131.5 56.5t-104.5 87t-66.5 110.5q-17 48 -30.5 98t-23.5 99z" />
<glyph unicode="z" horiz-adv-x="970" d="M-115 970h729q27 0 50.5 -32t42.5 -93l6 -29l-408 -636h543l39 -180h-732q-28 0 -49.5 32.5t-41.5 92.5l-7 31l404 635h-538z" />
<glyph unicode="{" horiz-adv-x="574" d="M-98 663q95 0 106 8q6 3 7 18.5t-8 58.5l-55 259q-21 97 1 157t71 93.5t116.5 45.5t138.5 13l38 -182q-45 0 -83.5 -4t-64.5 -17t-37 -38t-2 -68l56 -259q11 -55 10.5 -98.5t-15.5 -78.5q29 -34 48.5 -78.5t30.5 -95.5l56 -262q8 -39 28.5 -64t51.5 -38.5t72 -18.5t89 -5 l38 -181q-77 0 -151 13.5t-135.5 48t-107 94t-64.5 151.5l-56 262q-5 21 -10.5 37t-12.5 28q-5 11 -30 15.5t-88 4.5z" />
<glyph unicode="|" horiz-adv-x="383" d="M-160 1307h179l312 -1470h-180z" />
<glyph unicode="}" horiz-adv-x="571" d="M-245 1316q77 0 151 -13.5t135.5 -48.5t106.5 -95t65 -152l56 -260q9 -40 18 -59q7 -15 33 -20.5t91 -5.5l38 -181q-95 0 -108 -8q-5 -3 -6 -18.5t8 -58.5l56 -261q13 -64 7 -111.5t-26.5 -81.5t-54 -56t-74.5 -34.5t-87.5 -18t-93.5 -5.5l-39 182q46 0 84.5 4t64.5 16.5 t37 37.5t2 67l-56 261q-11 55 -10.5 98.5t15.5 76.5q-28 35 -48 79.5t-31 96.5l-56 260q-8 40 -28.5 65t-51 39t-71 19t-89.5 5z" />
<glyph unicode="~" horiz-adv-x="1101" d="M1 489q0 34 10.5 73.5t34 73.5t62 56.5t95.5 22.5q53 0 119 -20.5t147 -65.5h-1q59 -31 98 -44t62 -13q13 0 22.5 9t15 22t8 27.5t2.5 24.5l199 -49q-3 -34 -14.5 -74t-35.5 -74t-62.5 -56.5t-93.5 -22.5q-52 0 -120 21.5t-149 66.5q-56 31 -94.5 42.5t-61.5 11.5 q-15 0 -24.5 -8.5t-15 -20.5t-8 -26t-3.5 -25z" />
<glyph unicode="&#xad;" horiz-adv-x="1069" d="M-30 662h837l38 -180h-838z" />
<glyph unicode="&#xde;" horiz-adv-x="1620" d="M-79 950q107 45 201.5 66t176.5 21q95 0 180.5 -23t153 -64.5t112.5 -100t60 -128.5l89 -419q6 -27 22.5 -51t40 -41.5t52.5 -28t60 -10.5h49q31 0 56 10.5t40.5 28.5t22 41.5t0.5 50.5l-154 727h180l154 -727q14 -66 0 -123t-49.5 -99t-90 -66.5t-120.5 -24.5h-49 q-67 0 -131.5 24.5t-118.5 67t-92.5 99.5t-52.5 122l-89 418q-5 25 -26.5 49.5t-57.5 43.5t-87 31t-115 12q-46 0 -99.5 -9t-110.5 -26l175 -821h-181zM810 -130l152 69q17 -26 39 -49t46 -40t49 -27t49 -10h49q24 0 44.5 10t37 27t28 40t17.5 49l183 -69q-11 -53 -36 -96.5 t-60 -74.5t-79.5 -48.5t-95.5 -17.5h-49q-52 0 -104 17.5t-100.5 48.5t-92 74.5t-77.5 96.5z" />
<glyph unicode="&#x152;" d="M-1004 1484h226l27 -127h426l39 -181h-606l-27 125v2h-46z" />
<glyph unicode="&#x153;" d="M-1035 1732h224l27 -125h327l38 -179h-505l-26 124l-1 1h-46z" />
<glyph unicode="&#x178;" d="M-911 1641l556 46l55 -182l-395 -34q5 -38 -3.5 -58.5t-35.5 -20.5h-124z" />
<glyph unicode="&#x2c6;" d="M-1256 1346q7 39 26 71t48 56t65 33l105 -38q20 11 42.5 22.5t40.5 20.5q22 -8 29 -10t11 -5q25 -10 49.5 -27t47 -38t41.5 -43.5t33 -44.5l-34 160h168l28 -133q17 -77 -19 -138t-117 -94h-71q-27 0 -48 27.5t-38 78.5l-5 24q-3 16 -10.5 29t-22.5 24q-13 -6 -26.5 -13 t-27.5 -12q-7 -3 -16.5 -7t-15.5 -7l-97 39q-19 -21 -13 -53l28 -130h-110q-22 0 -45.5 29t-40.5 80l-4 21q-8 39 -1 78z" />
<glyph unicode="&#x2dc;" d="M-1185 1402h121q25 0 44.5 -24.5t33.5 -71.5l6 -27l349 2l39 -181h-528z" />
<glyph unicode="&#x2000;" horiz-adv-x="896" />
<glyph unicode="&#x2001;" horiz-adv-x="1793" />
<glyph unicode="&#x2002;" horiz-adv-x="896" />
<glyph unicode="&#x2003;" horiz-adv-x="1793" />
<glyph unicode="&#x2004;" horiz-adv-x="597" />
<glyph unicode="&#x2005;" horiz-adv-x="448" />
<glyph unicode="&#x2006;" horiz-adv-x="298" />
<glyph unicode="&#x2007;" horiz-adv-x="298" />
<glyph unicode="&#x2008;" horiz-adv-x="224" />
<glyph unicode="&#x2009;" horiz-adv-x="358" />
<glyph unicode="&#x200a;" horiz-adv-x="99" />
<glyph unicode="&#x2010;" horiz-adv-x="1069" d="M-30 662h837l38 -180h-838z" />
<glyph unicode="&#x2011;" horiz-adv-x="1069" d="M-30 662h837l38 -180h-838z" />
<glyph unicode="&#x2012;" horiz-adv-x="1069" d="M-30 662h837l38 -180h-838z" />
<glyph unicode="&#x2013;" horiz-adv-x="1049" d="M-39 662h837l38 -180h-837z" />
<glyph unicode="&#x2014;" horiz-adv-x="1308" d="M-25 662h1046l38 -180h-1047z" />
<glyph unicode="&#x2018;" horiz-adv-x="317" d="M-208 1300h190l81 -422h-168z" />
<glyph unicode="&#x2019;" horiz-adv-x="327" d="M-200 1300h190l81 -422h-168z" />
<glyph unicode="&#x201a;" d="M-1223 1213q-7 29 19 44t76 21h320q2 33 12.5 51t31.5 18h114l53 -247h-602z" />
<glyph unicode="&#x201e;" d="M-1222 1213q-6 29 19 43t76 22h77q2 33 12 51t30 18h114l15 -69h72q2 33 12.5 51t31.5 18h114l53 -247h-602z" />
<glyph unicode="&#x2022;" horiz-adv-x="711" d="M30 568q-9 42 0 80t31.5 66.5t57 45t76.5 16.5q43 0 85 -16.5t76 -45t58.5 -66.5t33.5 -80q9 -43 0.5 -81.5t-30.5 -67t-57 -45t-78 -16.5q-42 0 -83.5 16.5t-76 45t-59.5 66.5t-34 82z" />
<glyph unicode="&#x2026;" horiz-adv-x="1340" d="M138.5 171.5q4.5 21.5 17 37.5t32 25t43.5 9t47.5 -9t42.5 -25t32.5 -37.5t18.5 -45.5t0.5 -45.5t-16.5 -37.5t-31.5 -25t-43.5 -9t-47.5 9t-42.5 25t-33 37.5t-19 45.5t-0.5 45.5zM521.5 171.5q4.5 21.5 16.5 37.5t31.5 25t43.5 9t47.5 -9t42.5 -25t32.5 -37.5 t18.5 -45.5t0.5 -45.5t-16.5 -37.5t-31.5 -25t-43.5 -9t-47.5 9t-42.5 25t-32.5 37.5t-18.5 45.5t-0.5 45.5zM902.5 171.5q4.5 21.5 17 37.5t32 25t43.5 9t47.5 -9t42.5 -25t32.5 -37.5t18.5 -45.5t0.5 -45.5t-16.5 -37.5t-31.5 -25t-43.5 -9t-47 9t-42.5 25t-33.5 37.5 t-19 45.5t-0.5 45.5z" />
<glyph unicode="&#x202f;" horiz-adv-x="358" />
<glyph unicode="&#x2039;" d="M-606 1495h180l76 -357h-180z" />
<glyph unicode="&#x203a;" d="M-925 1793h180l76 -356h-180z" />
<glyph unicode="&#x205f;" horiz-adv-x="448" />
<glyph unicode="&#x20ac;" horiz-adv-x="931" d="M-171 835q22 43 55 77.5t72.5 58.5t85.5 37t95 13h63q48 0 94.5 -10.5t91.5 -28.5q9 8 16 21t12 26.5t7 26t1 20.5h179q6 -29 6 -59.5t-5.5 -58.5t-16.5 -51.5t-27 -38.5q0 -1 1 -2q0 -2 -1 -3t-1 -2l2 5q48 -48 80 -104t46 -119l57 -269q16 -75 1 -141.5t-55 -116.5 t-101.5 -81t-137.5 -37l-124 -2l-332 480h195l209 -299q43 5 77.5 22t57 43.5t31.5 60t1 71.5l-57 269q-9 40 -34 76.5t-61.5 63.5t-81 43t-91.5 16h-63q-63 0 -113.5 -41t-79.5 -107zM559 866q3 4 5.5 7.5t4.5 7.5q2 3 3.5 5t2.5 5zM575 891l2 3zM577 894q4 4 5 7z" />
<glyph unicode="&#x2122;" d="M-979 1224q-17 78 18 123.5t116 45.5q38 0 72 -12t60.5 -34t45.5 -53t27 -70q17 -80 -19.5 -124.5t-113.5 -44.5q-81 0 -135 44.5t-71 124.5zM-848 1224q4 -17 17.5 -28.5t30.5 -11.5q16 0 24.5 11.5t4.5 28.5q-3 17 -16.5 28t-29.5 11q-17 0 -25.5 -11t-5.5 -28z" />
<glyph unicode="&#x25fc;" horiz-adv-x="970" d="M0 0v970h970v-970h-970z" />
</font>
</defs>
</svg>
